<svg id="bg_layer" data-name="bg layer" xmlns="http://www.w3.org/2000/svg" viewBox="0 0 1922.37 2673.34"><defs><style>.cls-1{fill:none;}</style></defs><title>bg_06_r</title><rect class="cls-1" x="469.87" y="17.76" width="12.94" height="16.16"/><polygon points="1456.1 28.27 1446.03 21.3 1435.96 28.27 1428.96 38.37 1426.63 38.37 1434.47 26.79 1446.03 18.96 1457.6 26.79 1465.44 38.37 1463.1 38.37 1456.1 28.27"/><polygon points="1441.9 41.62 1450.16 41.62 1446.03 47.3 1441.9 41.62"/><polygon points="1450.16 55.19 1441.9 55.19 1446.03 49.51 1450.16 55.19"/><polygon points="1440.86 54.43 1440.86 42.38 1445.24 48.41 1440.86 54.43"/><polygon points="1451.21 42.39 1451.21 54.42 1446.83 48.41 1451.21 42.39"/><path d="M1442.8,34.67V33.28a3.24,3.24,0,1,1,6.47,0V35h-6.47A1.71,1.71,0,0,1,1442.8,34.67Z" transform="translate(0 -1)"/><polygon points="732.17 47.89 732.17 47.89 732.17 47.89 732.17 47.89"/><path d="M1922.37,67.34S1780.82,48,1764,54s-19.15,7.33-37.48,9.77c-14.87,2-59.26,5.4-75.52,6.62a103.55,103.55,0,0,1-12.33.19c-2.6-.12-5.94-.27-9.85-.47a2.92,2.92,0,0,0-.56-1.58s-1.49-2.48-2.81-2.48-3.71,0-4.37,2.48a9,9,0,0,0-.25,1.17c-19.85-1.07-49-2.94-76-5.8-26.65-2.82-49.83-5.74-79.62-6.22a.63.63,0,0,0-.42-.17h-2.45V40.55l-7.17-10.35L1446,23.85l-9.14,6.35-7.17,10.35V53.46a.69.69,0,0,0-.2,0c-1.19,0-3.67,0-3.58,2.64,0,0,0,0,0,.07-1.28.06-2.38-.08-2.57-.71-.5-1.63-1.32-4.19-3.64-4.35s-5.53,1.52-6,4.35-2.32,2.91-3.22,2.58-2.23-2.49-4.22-1.82-1,2.36-1.89,2.58-12.74,2.14-12.74,2.14h0q-4.58.42-9.34.91c-25.5,2.61-43.14,4.54-55.59,6-.17-.79-.61-2.15-1.55-2.09A2.23,2.23,0,0,0,1323,68.2l-8.14,1c-.39-.78-1.14-2-2.08-2.15-1.4-.25-3.35-.1-3.79,1.41-.14.48-.29,1-.44,1.51l-.83.1a11.76,11.76,0,0,0-.47-1.94c-.41-1.08-1.23-2.57-3.13-2.4a8.88,8.88,0,0,0-2.7.58c0-.41.09-.82.14-1.22a33.1,33.1,0,0,0,.48-6.74c-.23-2.57-.81-5.07-.63-7.68a25.64,25.64,0,0,1,.59-4.1,3.06,3.06,0,0,0,1.69-.42,1.79,1.79,0,0,0,.46,0,.75.75,0,0,0,.17.92,1.38,1.38,0,0,0,1.39,0c.41.43,1.06.16,1.51-.28a.72.72,0,0,0,.76-.18,1.54,1.54,0,0,0,.41-.68l.22,0a1.66,1.66,0,0,0,.31-.12,1.37,1.37,0,0,0,.65-.45,1.25,1.25,0,0,0,.93-.17,2.17,2.17,0,0,1,.44,0,1.63,1.63,0,0,0,1.11-.41,1,1,0,0,0,1.1.05,4.46,4.46,0,0,0,.71-.45l0,0,.12,0c.1,0,.46.25.56.13-.35.43-.61,1.06-.11,1.49a1.5,1.5,0,0,0,1.16.21c.14.33.5.38.89.29h0l.41-.12a2.63,2.63,0,0,0,2.53.92,1.9,1.9,0,0,0,1.28-1.69l.1.06a.86.86,0,0,0,.61.07.46.46,0,0,0,.17-.09.63.63,0,0,0,.12-.1l0,0,0-.09a.21.21,0,0,0,0-.06.14.14,0,0,0,0-.06.61.61,0,0,0,0-.12h0v0c.07-.22-.21-.53,0-.69l0,0,.26.39c.35.52.85,1,1.42.81a1.53,1.53,0,0,0,1.89.23,1,1,0,0,0,.31-1.17c-.12-.32-.19-.36.18-.36a1,1,0,0,0,.55-.13.43.43,0,0,0,.12-.64c-.14-.21-.64-.57-.42-.8l0,.09a2.38,2.38,0,0,0,1.58.9.36.36,0,0,0,.46-.3c0-.15,0-.42.12-.52s.41-.28.54-.18c.29.21.52.49.83.68a2.16,2.16,0,0,0,2,.28c.52-.27,1-.92.69-1.53a1.52,1.52,0,0,0-.77-.59,1,1,0,0,0,.22-1,1.25,1.25,0,0,0-1-.71,1.78,1.78,0,0,0,.09-.33,1,1,0,0,0-.2-.66.88.88,0,0,0-.55-.4.66.66,0,0,0-.09-.51,1.12,1.12,0,0,0-.27-.3l-.1-.06-.26-.14h0l-.28-.1h0l-.28-.07a1.08,1.08,0,0,1-.57-.23.89.89,0,0,0-.22-.16,1.06,1.06,0,0,0,1.2-1.18h0c0-.08,0-.17,0-.26a1,1,0,0,0,.39-1.44,1.67,1.67,0,0,0-.16-.24,1.26,1.26,0,0,0-1.16-.38c-.27.08-.2.07-.41-.06a.66.66,0,0,0,0-.25l0-.07a.42.42,0,0,0-.09-.14.79.79,0,0,0-.14-.18s0,0-.07,0l-.07-.05,0,0a.85.85,0,0,0,.6-.44c.57-.16,1.35-.53,1.28-1.16a1,1,0,0,0-.57-.83,1.08,1.08,0,0,0,.16-1.68h0a.07.07,0,0,1,0,0,1,1,0,0,0-.25-.16l0,0a1.43,1.43,0,0,0-.55-.12h-.33a1.07,1.07,0,0,0-1-.63,1.08,1.08,0,0,0-.54-1.18,1.38,1.38,0,0,0-1.35.08.81.81,0,0,0-.76.05l0-.05a1,1,0,0,0-.54-.37.87.87,0,0,0-.22-.05.58.58,0,0,0-.05-.21.59.59,0,0,0-.13-.18,2,2,0,0,0-.12-.76.84.84,0,0,0-.72-.58,1.52,1.52,0,0,0,.11-1.6c-.21-.36-.18-.79-.41-1.14s-.57-.26-.89-.18a1.53,1.53,0,0,0-.23-.7,4.2,4.2,0,0,0,1.23-1.59,1.74,1.74,0,0,0,.13-.51v-.06a.93.93,0,0,0-.06-.41l0-.05a.87.87,0,0,0-.22-.32l0,0a1.42,1.42,0,0,0-.67-.29c-.06-.59-.28-1.28-.9-1.41a1.33,1.33,0,0,0-1,.27,1.36,1.36,0,0,0-.43.43,1.07,1.07,0,0,1-.25-.27c-.16,0-.17-.1,0-.17a2.32,2.32,0,0,0,.4-.43,1.64,1.64,0,0,0,.17-1.26.94.94,0,0,0-.77-.66,1.14,1.14,0,0,0-.8.16c-.09-.07-.17-.21-.29-.25a.77.77,0,0,0-.72,0,1.12,1.12,0,0,0-.39.39,2.4,2.4,0,0,0-1.43.32,1.19,1.19,0,0,0-.22-.23.57.57,0,0,0-.31-.73,3.4,3.4,0,0,0-.56-.21l-.23-.09.07-.07a.71.71,0,0,0,.11-.21,1.76,1.76,0,0,0,1.15-.14,1.06,1.06,0,0,0,.49-1.3.48.48,0,0,0,.09-.47,1.7,1.7,0,0,0-.76-.79,1.25,1.25,0,0,0-.22-.7l-.11-.15a.13.13,0,0,0,0-.06,1.58,1.58,0,0,0,.08-.57c0-.67-.82-1.05-1.41-1.12a3.41,3.41,0,0,0-.42-.28h0a3,3,0,0,0-1.34-.39.85.85,0,0,0-.64.21l-.1,0a.92.92,0,0,0-.27-.08.8.8,0,0,0-.46,0c-.26.09-.55.53-.73.55a1.35,1.35,0,0,1-1.2-.36,1,1,0,0,0-.37-.19,2,2,0,0,0-.79-.75,1.77,1.77,0,0,0-.34-.58.57.57,0,0,0-.05-.37.78.78,0,0,0-.19-.24c.34-.54.76-1.38.3-1.94a1.13,1.13,0,0,0-.85-.48,2.29,2.29,0,0,0-.52,0,1.19,1.19,0,0,1-.26,0h0c-.21,0-.27-.12-.16-.41.17-.48.12-1.21-.5-1.34a1,1,0,0,0-.24,0h0a3,3,0,0,0-1.2.57l-.23.13s-.1-.09-.17-.18a.27.27,0,0,0-.07-.08.2.2,0,0,0-.1-.07,1.09,1.09,0,0,0-.78.23c-.35.25-.73-.27-1-.46a1.38,1.38,0,0,0-.93-.23.53.53,0,0,0-.49.52,6,6,0,0,0,.09.85c0,.14-.14.24-.31.34a1.28,1.28,0,0,0-1.36.31c-.18-.19-.37-.38-.58-.57a.6.6,0,0,0-.7-.06c-1.16.54-1.46,2.48-1,3.78a1.35,1.35,0,0,1-.24-.08.59.59,0,0,0-.79.55.9.9,0,0,0,0,.24h0s0,.05,0,.07a.82.82,0,0,0-.25.06l-.12,0s0,0,0,0a1.92,1.92,0,0,0-.25.12l-.12,0a.3.3,0,0,1-.13,0s0-.06.08-.12a1.83,1.83,0,0,0,.33-.49,1.6,1.6,0,0,0,0-1.27.93.93,0,0,0-.86-.53,1.09,1.09,0,0,0-.76.28c-.1,0-.2-.18-.33-.21a.77.77,0,0,0-.7.16,1.09,1.09,0,0,0-.33.44,2.46,2.46,0,0,0-1.66.8,1.44,1.44,0,0,0-.37,1.32.57.57,0,0,0,.12.23l0,0a1.86,1.86,0,0,0,.27.22l0,0h0l0,0h0l-.1.1a1,1,0,0,0-.22.39l0,0v0a.75.75,0,0,0-.62-.13,1.09,1.09,0,0,0-1.28-.8c-.75.09-1,.71-1.12,1.35a1.48,1.48,0,0,0-.94,1.77,1.86,1.86,0,0,0,.1.2l-.17,0h0a2.12,2.12,0,0,0-.41.12c-.23.09-.18-.1-.44-.19s-.29-.11-.44-.15a.85.85,0,0,0-.17-.06h0a.5.5,0,0,0-.13,0c-.38,0-.6-.33-1-.39a2.24,2.24,0,0,0-1.54.52,2,2,0,0,0-.82,1.33,1.38,1.38,0,0,0,.33,1,2,2,0,0,0-.64.52,2.34,2.34,0,0,0-1.48-.05c-.52.16-.53.67-.72,1.08-.29.6-.8,1.08-.59,1.81a.24.24,0,0,0,.06.11l0,.09a.85.85,0,0,0,.48,1h-.62l-.25,0h0a1.49,1.49,0,0,0-.56.19,1,1,0,0,0-.43.69l-.1,0h0a1.13,1.13,0,0,0-.36.14h0a1.27,1.27,0,0,0-.28.23v0a.73.73,0,0,0-.16.3s0,0,0,0v0h0v0a.76.76,0,0,0,0,.3c-.51.49-.61,1.24,0,1.49l-.07.11c-.08.14-.16.46,0,.55a1.57,1.57,0,0,0,.65.13c-.41.61-1.12,1.43-.7,2a.66.66,0,0,0-.24,0,1.3,1.3,0,0,0-1.29-.15,1,1,0,0,0-.59,1.1,1,1,0,0,0-1,.54h-.32a2.18,2.18,0,0,0-.53.08l0,0a1.17,1.17,0,0,0-.25.16l0,0h0a1.27,1.27,0,0,0-.26.33,1.16,1.16,0,0,0,.31,1.29,1,1,0,0,0-.59.77c-.09.6.63,1,1.17,1.18a.85.85,0,0,0,.54.46s0,0,0,0l-.1.06,0,0a1.14,1.14,0,0,0-.14.16.67.67,0,0,0-.09.14s0,0,0,.05a.67.67,0,0,0-.07.24c-.2.12-.14.13-.39,0a1.23,1.23,0,0,0-1.14.31,1.6,1.6,0,0,0-.16.23,1,1,0,0,0,.29,1.39,2.21,2.21,0,0,0,0,.25h0a1,1,0,0,0,1.11,1.2,1,1,0,0,0-.28.3.89.89,0,0,0-.12.82,1,1,0,0,1,.07.33l.06-.05-.06.07a1.34,1.34,0,0,0-.25.37.58.58,0,0,0-.37-.07.72.72,0,0,0-1.21-.61,1,1,0,0,1-.59.16l-.29,0c-.1,0-.19,0-.29.06h0l-.27.11-.11.05a.93.93,0,0,0-.3.26.58.58,0,0,0-.15.49.91.91,0,0,0-.6.33,1.08,1.08,0,0,0-.27.64,1.86,1.86,0,0,0,0,.34,1.24,1.24,0,0,0-1.07.58,1,1,0,0,0,.1,1,1.45,1.45,0,0,0-.84.5c-.44.56,0,1.27.5,1.6a2.15,2.15,0,0,0,2-.05,9.38,9.38,0,0,0,.91-.58c.14-.08.42.17.51.25s.07.38.06.53a.39.39,0,0,0,.43.36,2.43,2.43,0,0,0,1.67-.71l.06-.09c.19.26-.35.56-.51.75a.44.44,0,0,0,0,.65,1,1,0,0,0,.54.19c.36.05.28.08.13.38a1,1,0,0,0,.17,1.21,1.54,1.54,0,0,0,1.9,0c.54.27,1.1-.16,1.51-.63.1-.12.2-.25.3-.36l0,0c.18.18-.13.46-.09.69a1.17,1.17,0,0,0,.05.2v0a.35.35,0,0,0,.06.14l0,.06a.27.27,0,0,0,.07.08.64.64,0,0,0,.16.11.86.86,0,0,0,.61,0,3.47,3.47,0,0,1,.41-.16,1.83,1.83,0,0,1,.64.16,1.07,1.07,0,0,0,1.23-.8c.06-.26.17.07.19.16a1.11,1.11,0,0,1-.07.51,1,1,0,0,0-.07.63c.23.54.77.58,1.3.58a1.31,1.31,0,0,0,1.17-.7c.14-.25.11-.49.39-.36a.69.69,0,0,0,.61,0,1.37,1.37,0,0,0,.55-.49A.6.6,0,0,0,1281,44c.16,0,.31,0,.37.1.18.31,0,.31,0,.64.06.91,1.4.49,2.16.1a1.7,1.7,0,0,0,.45,0,.75.75,0,0,0,.17.92,1.38,1.38,0,0,0,1.39,0c.41.43,1.06.16,1.52-.28a.71.71,0,0,0,.75-.18,1.33,1.33,0,0,0,.14-.19h0a.9.9,0,0,0,.75.16,1.85,1.85,0,0,0,.4-.13h.73l1.17,0a1.29,1.29,0,0,0,.56,0h.25l.47.06.22,0,.46.1.2.05h0a.59.59,0,0,0,.2.25,1,1,0,0,0,.8.17,3.53,3.53,0,0,1,1,.79.12.12,0,0,0,.09.11c1,1.34,1.24,3.38,1.39,5a66.22,66.22,0,0,1-.08,15.73c-.18,1.3-.29,2.64-.51,3.94-1.29.13-2.32.19-3.46.22-3.38.08-21.63.55-44.35.78,0-.54,0-1.09,0-1.64s0-1.15-.11-1.72a9.39,9.39,0,0,1,0-1.5,2.94,2.94,0,0,1,.31-1.35,1.12,1.12,0,0,0,.78-.09c.3.3.75.12,1.07-.2a.51.51,0,0,0,.53-.12,1,1,0,0,0,.14-.17,1.86,1.86,0,0,0,1.71.56,1.15,1.15,0,0,0,.67-.52l.12,0a1.57,1.57,0,0,0,.53,0c.19,0,.37,0,.56,0a1,1,0,0,0,.61-.73l0,0a.51.51,0,0,0,.19.48,1.07,1.07,0,0,0,.81.14c.1.23.35.27.63.21h0l.3-.09a1.83,1.83,0,0,0,1.78.65,1.36,1.36,0,0,0,.88-1.52,1.34,1.34,0,0,0,.22-.36.93.93,0,0,0,.48-1.32h0a1.81,1.81,0,0,0,1.58.29c.26-.08.53-.29.43-.59a1.93,1.93,0,0,0-.32-.5.67.67,0,0,1-.08-.17s0,0,0-.05l.07,0a5.89,5.89,0,0,0,.91-.35c.1-.05.26-.24.23-.37a.37.37,0,0,0-.07-.12l-.06-.1a.18.18,0,0,1,0-.12c0-.06,0-.1,0-.12a.77.77,0,0,0,.28.12.51.51,0,0,0,.51-.18.76.76,0,0,0,1-.82h0a1.48,1.48,0,0,0,0-.19.71.71,0,0,0,.27-1,.76.76,0,0,0-.11-.16.88.88,0,0,0-.82-.28c-.18.06-.14.06-.28,0a.49.49,0,0,0,0-.12l0,0a.3.3,0,0,0,0-.1l0,0h0a.79.79,0,0,0-.12-.15l0,0-.07-.05h0a.62.62,0,0,0,.42-.32c.4-.11.95-.37.9-.81a.67.67,0,0,0-.4-.58.85.85,0,0,0,.28-.94,1.21,1.21,0,0,0-.17-.25h0l0,0h0a.76.76,0,0,0-.16-.11l0,0a1.17,1.17,0,0,0-.38-.08h-.24a.62.62,0,0,0-.53-.41.91.91,0,0,1,.16-.48c.28-.28-.07-.6-.35-.34a.49.49,0,0,0-.15-.4.45.45,0,0,0-.06-.42.43.43,0,0,0,.13-.5.41.41,0,0,0-.1-.13,1.51,1.51,0,0,0-.08-.53.61.61,0,0,0-.51-.41,1.06,1.06,0,0,0,.08-1.12c-.15-.25-.13-.55-.29-.8s-.4-.19-.63-.13a1,1,0,0,0-.16-.49,2.84,2.84,0,0,0,.87-1.12c0-.08,0-.15.07-.22s0,0,0-.07a.49.49,0,0,0,0-.12v-.08a.31.31,0,0,0,0-.1s0-.05,0-.08l0-.08,0-.06,0-.07,0-.06-.08-.06-.06,0-.11,0a.72.72,0,0,0-.26-.08c0-.42-.19-.9-.63-1a.9.9,0,0,0-.69.18,1.11,1.11,0,0,0-.31.3,1,1,0,0,1-.17-.18c-.11,0-.12-.07,0-.12a1.7,1.7,0,0,0,.29-.31,1.18,1.18,0,0,0,.12-.88.67.67,0,0,0-.54-.47.77.77,0,0,0-.56.12c-.07-.05-.12-.15-.21-.18a.54.54,0,0,0-.51,0,.87.87,0,0,0-.27.27,1.71,1.71,0,0,0-1,.23A.75.75,0,0,0,1257,44a.41.41,0,0,0-.22-.52,2.58,2.58,0,0,0-.39-.14l-.16-.06,0-.06a.37.37,0,0,0,.08-.15,1.15,1.15,0,0,0,.81-.1.75.75,0,0,0,.35-.91.32.32,0,0,0,.06-.32,1.22,1.22,0,0,0-.53-.57.89.89,0,0,0-.16-.48.44.44,0,0,0-.08-.11v0a1.1,1.1,0,0,0,0-.4c0-.48-.57-.74-1-.8a2.9,2.9,0,0,0-.29-.19h0a2,2,0,0,0-.94-.27.59.59,0,0,0-.45.15l-.07,0-.19,0a.62.62,0,0,0-.33,0c-.18.07-.38.37-.51.39a1,1,0,0,1-.84-.25.53.53,0,0,0-.48-.14.83.83,0,0,0-.55-.45,1.14,1.14,0,0,0-.45-.06.87.87,0,0,0,0-.87.83.83,0,0,0-.6-.33,1.45,1.45,0,0,0-.36,0h-.19c-.14,0-.19-.08-.11-.29s.09-.85-.35-.94h-.17a1.63,1.63,0,0,0-.63.26h0l-.12.08-.09.06-.17.1s-.08-.08-.14-.15l0,0a.13.13,0,0,0-.07,0,.77.77,0,0,0-.55.15c-.25.18-.52-.19-.69-.32a1,1,0,0,0-.65-.16.38.38,0,0,0-.35.37c0,.2,0,.4.07.6s-.1.16-.22.23a.93.93,0,0,0-1,.22c-.13-.14-.26-.27-.4-.4a.42.42,0,0,0-.5,0,2.15,2.15,0,0,0-.77,2.38,1.07,1.07,0,0,0-.37.22.41.41,0,0,0-.28.34l0,.05a1,1,0,0,1-.2-.16q-.18,0,0-.12a1.56,1.56,0,0,0,.23-.34,1.14,1.14,0,0,0,0-.89.64.64,0,0,0-.6-.38.76.76,0,0,0-.54.2c-.08,0-.14-.13-.23-.15a.56.56,0,0,0-.5.11.94.94,0,0,0-.23.32,1.72,1.72,0,0,0-1.16.55,1,1,0,0,0-.26.94.18.18,0,0,0,0,.09l0,0,0,.06,0,0,.05,0a.1.1,0,0,1,0,0h0l0,0h0l-.08.08a.79.79,0,0,0-.15.27l0,0h0a.55.55,0,0,0-.43-.08.77.77,0,0,0-.9-.56c-.53.06-.72.49-.79.94a1.06,1.06,0,0,0-.67,1.25c0,.05,0,.09.07.14l-.11,0h0a1.29,1.29,0,0,0-.28.08c-.17.07-.13-.07-.31-.13l-.3-.1-.13,0h0l-.09,0c-.27,0-.43-.23-.69-.27a1.56,1.56,0,0,0-1.09.36,1.48,1.48,0,0,0-.57.94,1,1,0,0,0,.23.73,1.33,1.33,0,0,0-.45.37,1.61,1.61,0,0,0-1,0c-.36.11-.37.47-.51.76s-.56.76-.41,1.27a.3.3,0,0,0,0,.08.14.14,0,0,1,0,.06.55.55,0,0,0,.1.51.51.51,0,0,0,.24.19H1230l-.21,0h0a1.2,1.2,0,0,0-.39.13.68.68,0,0,0-.3.48l-.07,0h0l-.09,0,0,0-.08,0,0,0-.07,0,0,0-.06.05a.21.21,0,0,1,0,.06l0,.05,0,.07s0,0,0,0a.09.09,0,0,0,0,0h0v0h0v.06a.34.34,0,0,0,0,.14c-.36.34-.42.87,0,1l-.05.07c-.06.1-.11.33,0,.39a1.11,1.11,0,0,0,.46.09c-.32.48-.91,1.13-.39,1.52h0a.43.43,0,0,0-.12.17h-.23a1.36,1.36,0,0,0-.36.06l0,0a.65.65,0,0,0-.16.09h0l0,0h0a.71.71,0,0,0-.18.23.82.82,0,0,0,.21.91.68.68,0,0,0-.41.54c-.07.42.44.7.82.83a.59.59,0,0,0,.38.33h0l-.08,0h0a.77.77,0,0,0-.12.13h0s0,0,0,0a.36.36,0,0,0,0,.09s0,0,0,0a.36.36,0,0,0,0,.11c-.14.08-.1.08-.28,0a.85.85,0,0,0-.8.21.91.91,0,0,0-.11.16.68.68,0,0,0,.2,1,.57.57,0,0,0,0,.18h0a.73.73,0,0,0,.88.84.49.49,0,0,0,.49.2.88.88,0,0,0,.27-.1s0,.06,0,.12a.21.21,0,0,1-.05.12.22.22,0,0,0,0,.08.36.36,0,0,0-.08.12c0,.12.11.31.2.36a5.43,5.43,0,0,0,.85.39l.07,0,0,.07s0,0,0,0l-.06.09a2.19,2.19,0,0,0-.34.46c-.11.28.14.5.38.59a1.64,1.64,0,0,0,.48.09,1.33,1.33,0,0,0,.24.1.67.67,0,0,0-.08.68c.16.39.75.37,1.13.28a.6.6,0,0,0,.5.08h0a.3.3,0,0,0,0,.08h0a.58.58,0,0,0,0,.18h0V62a.28.28,0,0,0,0,.09v.05l0,.1c-.07.14,0,.13-.22.16a.84.84,0,0,0-.57.6.65.65,0,0,0,0,.19.68.68,0,0,0,.68.74,1.22,1.22,0,0,0,.07.17h0a.74.74,0,0,0,1.19.26.51.51,0,0,0,.48,0s0,0,0,0c.11.23,0,.22,0,.45,0,.64,1,.44,1.5.22a.44.44,0,0,0,.16,0,1.14,1.14,0,0,0,0,.37.33.33,0,0,0,.19.25l0,.06a1,1,0,0,0,1,.1c.25.33.73.19,1.08-.09a.49.49,0,0,0,.53-.07,1.27,1.27,0,0,0,.38-.51.93.93,0,0,0,.83-.28.71.71,0,0,0,.38,0,.5.5,0,0,0,.18,0c.16,0,.49-.13.58,0a.43.43,0,0,1,0,.13c0,.1,0,.15,0,.32,0,.64,1,.35,1.52.07h.08l0,0,.18.07a.48.48,0,0,0,.14.57.86.86,0,0,0,.84,0,4.27,4.27,0,0,1,.55,1,4.79,4.79,0,0,1,.15,1.12,26.89,26.89,0,0,1-.48,4.19c-15.14.13-31.83.13-47.24-.15-.61-1.31-2-4-3.56-4.48-2.06-.66-4.46-1.74-5.53.41a23,23,0,0,0-1.82,3.8c-3.84-.11-7.55-.25-11.06-.41-42.28-2-150.94-5.45-165.31-5.29-4,.05-11.69.35-20.83.78-.55-.78-1.62-2.1-2.62-2.1a2.72,2.72,0,0,0-2.85,2c-.91-1.85-3.22-3.16-6.06-3.09-2.46.06-3.48,2.55-3.85,3.91-21,1.06-42.56,2.28-42.56,2.28l-70.08,1.42a4.35,4.35,0,0,1-.42-1.77V68h0v0l0-.32,0,1.13h0l-.06-1.39,0-.46,0-.12c0-.21.09-.42.13-.63v0a3.41,3.41,0,0,0,0-.55c0-.12,0-.22,0-.33h0l-.07-.42h0l-.13-.24h0a2.31,2.31,0,0,0-.18-.35l.08.07.07.11h0v-.05l-.07-.12h0l-.11-.16,0,0,0,0-.1-.08a4.06,4.06,0,0,0-.36-.46l-.12-.47h0l-.26-1a7.7,7.7,0,0,0-.07-.79,7.09,7.09,0,0,1-.1-1.22,8.81,8.81,0,0,1,.15-1c.12-.6.23-1.19.35-1.78a10.21,10.21,0,0,0-.58-5.41l-.14-.55h0l0-.09.39.75,0,0,0,0,.36,1s0,0,0,.07l-.08-.24h0l0,0,.23.74c.07.49.13,1,.17,1.49v0l0,0,0,0,.13,1.47,0,.21v0h0l.15,1.88h0l0-.52,0,0h0l0,.35-.09,2.31h0l.05-.62,0,.1v.28h0l0,1.19h0l0-1.36.11.64h0v0h0v0l-.05,0,0,0,.07.72h0l-.07.54h0l.06-.48h0v0l0,.17V62l-.1.87h0l.08-.7v1.22l0,0h.06v.34h0l0-.37h0l0-.21h0v.24l.06.05,0-.05v-.07l0,.12.09,1.3h0l-.09-1.21h0l.24.93v0h0l.24.84.08.49h0l-.07-.46h0v0l-.16-.89.32,1.19.1.86h0l-.09-.73,0,.08,0,0,0,0,0-.18.23.72,0,.55h0l0-.47,0,.1h0v.06l0,0,0,0,0-.22,0,.5h0l0-.58.05-.49v-.5h0l-.07-.48v0l.1.24,0,1.47h0l0-1.42,0,.09,0,0,0,0-.11-.71v-.24l0,.33h0l0,.1h0v-.1h0l-.12-.8h0l.24.87h0l-.26-1h0l0-.13h0l0,.05.26.67h0l0,0-.23-.56.12.12.14.32h0v0l-.12-.26.38.41h0v0l-.68-1-.06-.12.18.25h0l-.11-.16.13.14h0v0l-.47-.74.39.28.06,0v-.06l-.26-.19-.33-.34-.25-.41-.25-.94c0-.63-.08-1.26-.1-1.89,0-1.62,0-3.29-.15-4.91l0-.9,0-.12,0,1a14.46,14.46,0,0,0-.34-2.09l.18.52-.16-.74-.31-.72c-.09-.23-.19-.47-.29-.7l-.13-.73.25.52.18.55h0v0l-.29-.88-.61-1,0,.09-.37-.39-.42-.34-.3-.14a3.11,3.11,0,0,0-1.41-.65,4.38,4.38,0,0,0-.5,0h.11l.58,0,.46.11h0l.31.13-.31-.15h0l-1.07-.26h0v0l.37.09-.27,0h0l0,0h0l-.38,0-.49,0-.17,0h-.28l-.49,0-.46.19-.2,0-.9.07,0,0,0,0,.56,0-.39.08-.56,0h0l0,0h0l-.22.07-.33,0h0l.26,0-.34.11-1.41.32h0l1.3-.3-.22.07v0l-3,.64-.54.1-3.61.25h0l3.48-.25a32.5,32.5,0,0,1-5.12.48h0l-.85-.1h0l.84.1-1.73,0,.89-.07h0l-1.11.09h-2.24c-.23,0-.45,0-.68,0l-1.36-.5-1-.15,1.16.25,1.11.38-.16,0-.8-.29-.9-.22,1.55.48c-.27-.06-.54-.15-.8-.23a12.23,12.23,0,0,0-1.19-.31l.43.06-.43-.1L833,48.29l-.49.06a12.7,12.7,0,0,0-1.51,0c-.78.09-1.51.19-2.26.24h0l-.1,0a8.58,8.58,0,0,1-1.24,0v0l-.48-.24h.12l.12,0h0l0,0v0h-.09l-.16,0h0l-.08,0,.06,0,.06,0v0h-.3l0,0h0l0,0h0l.06,0,0,0v0h0l-.2.09h0l-.43.1h0l-.6.19h0l.61-.2h0l.36-.08-.1,0h0v0h0l.06,0h0l.08,0h0l0,0-.11,0h-.11l-.17,0,.07,0h0l-.1,0,.1,0h0l-.23.07h0l-.1,0h0l.09,0h0l-.17.06h0a.58.58,0,0,0-.15.11,4,4,0,0,1-.68.1h-.07l.11,0,.21,0h0l-.14,0,.32-.15h0l-.59.25h-.13a1.28,1.28,0,0,1-.43-.1,2,2,0,0,0,0-.24l0-.15,0-.07h0v-.11h0v0l0-.13,0-.24,0-.09-.12,0-.1.1,0,.06,0,.05,0,.06h0l0,0-.12.22a.52.52,0,0,1-.18.1,1.11,1.11,0,0,1-.44.08l-.07,0h0l0,0h0l0,0h0l-.23,0h0l-.17,0-.18,0-.24-.08h0l.09,0h0l-.32,0h0l-.12,0-.2-.06h-.09l-.11,0h0l-.29.06h0l.07-.05v0h0l-.08.06-.19-.09h0l-.19,0-.21,0,0,0a3.06,3.06,0,0,0-.33-.52c0,.05-.14-.31-.17-.26s0,0,0,.07h0l-.09.07,0,.11h0v.12l0-.08h0l0,.15v.19l0,0,0,0v0l.12.44-.27.11h0l-.13,0,0,0,0,0-.12,0v0l0,0,.19-.07v.05l-.13,0h0v0h0l0,0h0l0,0v0l.09,0h.09v0l-.09,0v0h0l.08,0-.06.06v0h0l.07-.08,0,0h0l0,0-.11.08v0h0l.1-.08h0l-.05.06v0h0l0,0v0l0,.06v0h0l0,0,0,0-.07.08-.09.07v0h0l.09-.06.08-.08h0l0,0v0h0l0,0h0L820,49v0h0l0-.07h0l0,0v0h0v0h0v0h0l-.28.43h0l-.1.11-.3.28h0l0,0-.15.18,0-.05h0V50h0l0,0v0l0,.14,0,.14v0h0l0-.08h0l0,.16v.21l0,.21v.24l-.13.53-.13.33h0l-.26.57v0h0l.2-.46h0l.16-.4h0a.73.73,0,0,1,0,.2,4.66,4.66,0,0,1-.51,1l.06-.12v0h0l-.19.32v0h0a5.88,5.88,0,0,0-.35.6h0l-.13.26v0h0a.3.3,0,0,0,0,.1v0l0,0,0,.18,0,0h0s0,.09,0,.14h0l0,0v.44h0L818,55h0v0h0l.08.19h0l0,.13.09.08.11.17h.08l0,0h0l.16.12.19.07h.07L819,56h0v0l0,0H819l0,0h0v0h0l.07,0h0v0l-.29-.18h.06l.05,0h0l.13.08h0l.15,0h.18l.13,0h0l.08,0,.09,0h0v0l.1-.07v0h0l-.06,0h0l-.06,0h0v0h0l-.07-.05h.08l.07,0h0l-.08-.06h0l0,0,0,0h0l0,0,0,0H820v0h0l0,0h0v0h0l.26,0h0l.14,0h.06l.25,0,.26,0v0h0l0,0h0l0,0h.05l.29.06.26,0h0l0,0h0l.09,0H822l0,0,.1,0,.2,0,.19,0h.17l.26,0h.31l.1,0h.11l.21.05.2-.07v0h0l.82.34h0l.05,0v0h0l.25.16h0v0l-.09-.06h0l.39.2.28.27h0l.38.24h0l0,0h0l.07.17.09.16h0v0l.55,1.18,0,.22.2.56h0l.25.52.19.65h0l-.1-.4.06.11.16.53-.06-.29h0c.06.22.12.45.2.67l0-.07-.07-.21.18.57.19.23v0l0,.06,0,0,.09.1,0-.07.35.4h0l.15.16v0h0l.2.22.3.66.41.6L830,64l-.24-.19-.21-.25h0l.25.29.5.36h0l.19.11.19.1,0,.1h0v0l0-.08.21.07.06,0a.65.65,0,0,1,.17.16l0,.3-.18.41v0h0l.11-.19.07-.21-.1.55v.07c0,.38,0,.78,0,1.14s-.07.83-.12,1.25l-.14,1.06c-.07.45-.15.91-.25,1.37a3,3,0,0,1-.45,1.16,1.5,1.5,0,0,1-.2.23l-.2.18v0h0l0,0-.13.11h0v0h0l0,0h-.19L810,72.55c-8.1.15-53.22-.41-89.2-1-.47-1-1.44-2.68-2.61-2.86a9.4,9.4,0,0,0-2.07-.14,10.57,10.57,0,0,0,0-1.87,29.24,29.24,0,0,1-.37-4.57,14.32,14.32,0,0,1,.35-2.45,1.83,1.83,0,0,0,1-.25.82.82,0,0,0,.27,0c-.07.21-.09.41.1.55a.82.82,0,0,0,.83,0c.24.26.63.1.9-.16a.46.46,0,0,0,.45-.11,1,1,0,0,0,.24-.41l.13,0,.19-.07a.86.86,0,0,0,.39-.27.73.73,0,0,0,.55-.1,1.14,1.14,0,0,1,.26,0,1,1,0,0,0,.66-.25.59.59,0,0,0,.66,0,3.74,3.74,0,0,0,.42-.27l0,0,.08,0s.27.15.33.08c-.21.25-.37.63-.07.88a.93.93,0,0,0,.69.13c.09.19.3.22.53.17h0a1.17,1.17,0,0,0,.25-.07,1.56,1.56,0,0,0,1.51.54,1.13,1.13,0,0,0,.76-1l.06,0a.5.5,0,0,0,.36,0l.11,0,.06-.07h0a.1.1,0,0,0,0,0s0,0,0,0a0,0,0,0,0,0,0l0-.07h0c0-.14-.12-.32,0-.42h0l.16.24c.21.31.51.6.85.48a.92.92,0,0,0,1.12.14.62.62,0,0,0,.19-.7c-.07-.19-.12-.21.1-.21a.62.62,0,0,0,.33-.08.27.27,0,0,0,.08-.38c-.09-.13-.39-.34-.26-.48a.1.1,0,0,0,0,0,1.39,1.39,0,0,0,.93.54.23.23,0,0,0,.28-.18c0-.09,0-.25.07-.31s.24-.16.32-.11a5,5,0,0,0,.5.41,1.3,1.3,0,0,0,1.16.17c.3-.16.62-.55.41-.91a1,1,0,0,0-.46-.36.57.57,0,0,0,.13-.61.76.76,0,0,0-.6-.42.59.59,0,0,0,.06-.2.67.67,0,0,0-.12-.39.54.54,0,0,0-.33-.24.34.34,0,0,0,0-.3.56.56,0,0,0-.16-.18l-.06,0-.16-.08h0l-.17-.06h0l-.18,0a.55.55,0,0,1-.33-.14l-.13-.09a.63.63,0,0,0,.71-.7h0a.44.44,0,0,0,0-.16.7.7,0,0,0,.14-1,.74.74,0,0,0-.69-.23c-.16.05-.12.05-.24,0l0-.15,0,0-.06-.09a.35.35,0,0,0-.08-.1h0l0,0h0a.53.53,0,0,0,.35-.27c.34-.09.8-.31.76-.69a.57.57,0,0,0-.33-.49.73.73,0,0,0,.24-.79,1,1,0,0,0-.15-.21l0,0a.71.71,0,0,0-.14-.1h0a1.14,1.14,0,0,0-.32-.07h-.2c-.07-.24-.31-.34-.58-.37a.66.66,0,0,0-.33-.71.82.82,0,0,0-.8,0,.48.48,0,0,0-.45,0l0,0a.64.64,0,0,0-.32-.22l-.14,0a.35.35,0,0,0,0-.13.19.19,0,0,0-.08-.1.93.93,0,0,0-.07-.45.5.5,0,0,0-.43-.35.89.89,0,0,0,.07-.95c-.13-.21-.11-.47-.24-.68s-.34-.16-.54-.11a.8.8,0,0,0-.13-.42,2.38,2.38,0,0,0,.73-.94,1,1,0,0,0,.08-.31v0a.61.61,0,0,0,0-.24l0,0a.46.46,0,0,0-.13-.18l0,0a.76.76,0,0,0-.4-.17c0-.36-.17-.77-.54-.84a.76.76,0,0,0-.58.15.81.81,0,0,0-.26.26.7.7,0,0,1-.14-.16c-.1,0-.11-.06,0-.1a1.48,1.48,0,0,0,.24-.26,1,1,0,0,0,.1-.75.55.55,0,0,0-.46-.39.61.61,0,0,0-.47.1c-.06,0-.1-.13-.18-.16a.45.45,0,0,0-.42,0,.76.76,0,0,0-.24.23,1.48,1.48,0,0,0-.85.19.8.8,0,0,0-.13-.13.33.33,0,0,0-.19-.44,1.85,1.85,0,0,0-.33-.12.75.75,0,0,1-.13-.06l0,0a.24.24,0,0,0,.07-.13,1.05,1.05,0,0,0,.69-.08.63.63,0,0,0,.29-.77.28.28,0,0,0,.05-.28,1.09,1.09,0,0,0-.45-.48.73.73,0,0,0-.13-.41l-.07-.09v0a1,1,0,0,0,0-.34c0-.4-.49-.63-.84-.67a1.84,1.84,0,0,0-.25-.17h0a1.81,1.81,0,0,0-.8-.23.52.52,0,0,0-.38.13.08.08,0,0,0-.06,0,.43.43,0,0,0-.16,0,.49.49,0,0,0-.27,0c-.16,0-.33.31-.44.33a.81.81,0,0,1-.71-.22.9.9,0,0,0-.22-.11,1.27,1.27,0,0,0-.47-.45.92.92,0,0,0-.21-.34.32.32,0,0,0,0-.22.42.42,0,0,0-.12-.14c.21-.33.45-.83.18-1.16a.67.67,0,0,0-.5-.29,1.06,1.06,0,0,0-.31,0h-.16c-.12,0-.16-.07-.1-.24s.08-.72-.29-.8h-.15a1.67,1.67,0,0,0-.71.34l-.14.08s-.06-.05-.1-.11l0-.05-.07,0a.6.6,0,0,0-.46.13c-.21.15-.44-.16-.58-.27a.79.79,0,0,0-.56-.14.32.32,0,0,0-.29.31,4.43,4.43,0,0,0,.06.51c0,.08-.09.14-.19.2a.77.77,0,0,0-.81.18l-.34-.34a.36.36,0,0,0-.42,0c-.7.32-.87,1.47-.6,2.25l-.14-.05a.35.35,0,0,0-.47.33.57.57,0,0,0,0,.14h0a.08.08,0,0,0,0,0l-.15,0-.08,0h0l-.14.07-.07,0h-.08s0,0,0-.07a.94.94,0,0,0,.2-.29.93.93,0,0,0,0-.75.55.55,0,0,0-.52-.32.65.65,0,0,0-.45.17.69.69,0,0,0-.2-.13.46.46,0,0,0-.42.09.7.7,0,0,0-.19.27,1.47,1.47,0,0,0-1,.47.89.89,0,0,0-.22.79.26.26,0,0,0,.08.13v0l.17.13h0l-.06.07a.59.59,0,0,0-.14.23,0,0,0,0,0,0,0h0a.47.47,0,0,0-.37-.08.66.66,0,0,0-.76-.48.82.82,0,0,0-.66.81.88.88,0,0,0-.57,1l.06.12-.09,0h0a.73.73,0,0,0-.24.07c-.14,0-.11-.06-.26-.11l-.26-.1-.11,0h0l-.08,0c-.23,0-.36-.2-.58-.23a1.3,1.3,0,0,0-.92.31,1.21,1.21,0,0,0-.49.79.87.87,0,0,0,.19.62,1.4,1.4,0,0,0-.38.31,1.3,1.3,0,0,0-.87,0c-.31.1-.32.4-.44.64s-.47.64-.35,1.08l0,.06a.14.14,0,0,1,0,.06.45.45,0,0,0,.09.43.41.41,0,0,0,.2.16h-.54a.88.88,0,0,0-.33.12.56.56,0,0,0-.26.41h-.06l-.22.08h0a.73.73,0,0,0-.16.14l0,0a.51.51,0,0,0-.09.18h0v0h0v0a.54.54,0,0,0,0,.18c-.3.29-.35.74,0,.89l0,.06c0,.08-.1.27,0,.33a1.13,1.13,0,0,0,.39.08c-.25.36-.67.85-.42,1.18a.39.39,0,0,0-.15,0,.77.77,0,0,0-.76-.09.6.6,0,0,0-.35.65c-.26,0-.5.1-.58.33h-.19a.86.86,0,0,0-.32.05h0l-.15.09h0a.58.58,0,0,0-.15.19.68.68,0,0,0,.18.77.56.56,0,0,0-.35.46c-.06.36.37.59.69.7a.51.51,0,0,0,.33.28h0l-.06,0h0a.39.39,0,0,0-.08.1l-.06.08,0,0a.66.66,0,0,0,0,.15c-.12.07-.08.07-.23,0a.74.74,0,0,0-.68.19.51.51,0,0,0-.09.13.57.57,0,0,0,.17.83.8.8,0,0,0,0,.15h0a.62.62,0,0,0,.67.72.69.69,0,0,0-.17.17.54.54,0,0,0-.07.49.71.71,0,0,1,0,.2l0,0a.08.08,0,0,0,0,0,.72.72,0,0,0-.15.22.4.4,0,0,0-.22,0,.46.46,0,0,0-.33-.47.5.5,0,0,0-.39.1c-.1.09-.21.08-.35.1l-.17,0-.18,0h0a.76.76,0,0,0-.16.06l-.07,0a.84.84,0,0,0-.18.15.42.42,0,0,0-.09.3.51.51,0,0,0-.35.2.57.57,0,0,0-.16.38,1.36,1.36,0,0,0,0,.2.75.75,0,0,0-.64.34.59.59,0,0,0,.06.63.85.85,0,0,0-.5.3c-.26.33,0,.75.3,1a1.3,1.3,0,0,0,1.17,0c.2-.09.36-.24.54-.34s.25.1.3.14,0,.23,0,.32a.22.22,0,0,0,.25.21,1.45,1.45,0,0,0,1-.42l0,0c.11.15-.21.33-.31.45a.25.25,0,0,0,0,.38.59.59,0,0,0,.32.11c.21,0,.17,0,.08.23a.61.61,0,0,0,.1.72.9.9,0,0,0,1.13,0c.32.16.65-.09.9-.37l.18-.22h0c.11.11-.08.28-.06.41a1,1,0,0,0,0,.12h0a.25.25,0,0,0,0,.09s0,0,0,0l0,0,.1.07a.52.52,0,0,0,.37,0,1.22,1.22,0,0,1,.24-.1,1.26,1.26,0,0,1,.38.1.64.64,0,0,0,.73-.48c0-.16.1,0,.11.1a.64.64,0,0,1,0,.3.59.59,0,0,0,0,.37c.14.33.46.35.77.35a.77.77,0,0,0,.7-.41c.08-.16.07-.3.23-.22a.44.44,0,0,0,.37,0,.91.91,0,0,0,.33-.29l0-.07c.1,0,.18,0,.22.06s0,.19,0,.38c0,.54.83.3,1.28.07h.27c-.06.2-.08.41.11.54a.78.78,0,0,0,.82,0c.25.26.63.1.9-.16a.43.43,0,0,0,.45-.11.48.48,0,0,0,.09-.11h0a.51.51,0,0,0,.45.1,1,1,0,0,0,.24-.08h1.13a.88.88,0,0,0,.33,0h.15l.28,0,.13,0,.27.06.12,0h0a.48.48,0,0,0,.11.15.7.7,0,0,0,.48.1,2,2,0,0,1,.58.46.07.07,0,0,0,.05.07,5.94,5.94,0,0,1,.82,3,40.35,40.35,0,0,1,0,8.65c-19.12-.34-34.36-.68-37.74-.91-9.91-.66-27.91.66-42.27-4.79s-40.3-19.49-55.32-17-32,9.25-32,9.25-18.84,7.64-23.45,6.61c-3.39-.76-1.65-3.24-4.79-3.32-2.5-.07-2.31,3.15-4.29,2s-6.94-6.6-11.07-6.93-5.94.66-8.91,2.48S488.29,64,472.6,63.87c-5.73-.06-24-.45-46.25-1h0l-.06,0a2.5,2.5,0,0,0-1-.24h0l-.14-.05h0l-.24-.08h0l.22.08-.07,0h-.09l0,0h-.08l.07,0h-.2l.06,0h-.25l-.24-.19h0l.23.19h0l-.19-.1,0,0-.05-.09v-.12h0v.11l-.26-.44v0l-.05-.43a.48.48,0,0,0,0-.12h0a.38.38,0,0,0,0-.1,1.51,1.51,0,0,0,0-.3l0-.08h0l.05-.27h0l0,.12.06-.64,0-.11.07-.17h0l-.11.63h0l.12-.64,0-.08,0-.06h0l.08-.12-.15.32h0l.17-.34h0l.2-.24h0l.33-.31h0l-.07.12h0l.28-.25,0,0h0l-.28.25h0l.3-.28h0l.11,0v0h0l-.07.11h0l.1-.14.17-.06-.06.11,0,0,0-.08h0l.11-.06v0h0v0h0l.16-.09h0l.27-.16h0l.06,0h0l.06,0h0l.06,0h0l.06,0h0l.26-.19h0l.12-.1v0h0l.16-.15h0l0,0,0,0v0h0l.09-.2h0l-.05.13h0l.05-.14.3-.38h0l0,0,.06-.08h0l.13-.16-.08.12h0l.17-.25.25-.32-.16.33h0L428,56v0h0V56l0-.07,0,.14h0l0-.18h0l0,.1h0l0-.17v0h0v0l0-.07h0v0l0-.19.37-.92h0l.05-.2h0v0h0l.06.27h0l0-.74v-.05h0l0-.33h0l0,.13h0l0-.42,0,.25h0l0-.37v-.05h0l0-.16.07-.57h0v0l0-.36,0,.72h0l0-.79v-.09h0v-.09h0v-.06h0v0h0l0-.1h0v-.24l0,.05h0l0-.19.09.09h0l-.08-.24-.11-.51h0l.09.45-.06-.18h0v0l-.08-.3.06.06h0l-.08-.29h0l-.08-.31h0l0,.15-.13-.4.11.26h0l-.15-.33,0-.09h0v0l0,0-.06-.22h0l0,.14-.07-.15v-.13l.05-.45h0v-.12h0l0-.21.12-.42.07-.06,0,0,0-.07,0,0,0,0h0l0,0v0h0l.1-.16.08-.31,0-.32h0l.29-.54.05-.55h0v-.09h0v0h0v0l0,.06s0,0,0-.06l.05-.07h0l0,0,.08,0h.05l0,0h0l.05,0H430a1.08,1.08,0,0,0,.18,0c.05,0,.1,0,.13.05h0l0-.06v-.06h0l-.2-.28-.24-.09,0,0h-.07l-.05-.08h0l0,0h0s0,0,0,0h0v0h0v0h0v0h0l0-.09h0a.59.59,0,0,0,.07-.26.43.43,0,0,1,0,0v0l0,0v-.05h0l0,0h0v-.06h0a.36.36,0,0,0,0-.14h0s0-.07,0-.11h0V44l0,0h0l0,0v0h0v0h0v0l0,0,0,0h0l0-.07v-.08l0,0-.05,0h0l0,0h0l-.06,0v0h0v0l.07,0h0l-.06,0s0-.06,0-.09v0h0v0h0s0,0,0,0l0,0v0l0,0h0l0,0,0-.06h0l0,0,0,0h0l0,0h0l0,0h0l0,0h0l0,0h0v0h0l0,0h0v0h0l0,0h0l0,0h0l.06,0h0l-.07.07h0l0,0h0l.05-.06h0l0,.05,0,0h0a.1.1,0,0,1-.06-.08l0,0h0l0-.1h0v-.06l0,0h0v0h0v-.06l0,0h0l0,0v0h-.08l0,0h0l0,0a0,0,0,0,0,0,0c-.05,0-.1,0-.13.08a1.29,1.29,0,0,1-.15.17c-.13-.15,0-.4-.09-.59l0,0,0,0h0v0l0,0s-.05,0-.07,0h0v0s0,0,0,0l.06-.07h0l-.11.11v0h0l0,.05a.85.85,0,0,0-.22.42.49.49,0,0,1-.29.32.27.27,0,0,1-.14-.14v-.12h0v0h0s0-.06,0-.09l0-.29h0l0,.19c0-.05,0-.11,0-.14V42.8l.05-.06h0l0,.05v-.06h0v-.1l-.07,0h0l.09,0v.08h0v.09h0c0-.06,0-.12-.05-.17l-.11,0,.07-.07h0l-.11.1-.06,0,.1-.09h0l0,0h0l-.09.09,0-.05.06,0h0l-.09.12h0l0,0h0l0,0h0l0,0h0l0,.06v0h0l-.07.18-.06.06h0l0,0h0a.54.54,0,0,0-.05.11l0,0v0h0l0,.08,0,0,0-.16h0v0l-.06.17,0,0,0-.11.05-.08,0,.05,0,.15v0h0l0,.07h0l0,0v.13h0v0h0l0,.1v.09l0,.06h0l0-.05v.05h0l-.05.16,0,0,0,0h-.26l0,0h-.09v0l0,0-.14.06h.05l-.11,0h0l.14,0-.06,0h0l-.16,0h0l.15,0h0l0,0-.12.06h0l-.14.09.12-.09h0l-.31.21h0l.11-.07h0l.07,0-.16.13-.17.11h0l.13-.07-.13.11h0l-.23.23-.34.3h0l.07,0-.63.66v0h0s0,0,0,0l0,0h0l-.06.06v0h0l.07-.07a.11.11,0,0,1,0,.11,6.92,6.92,0,0,0-.91,2.36.47.47,0,0,1,0,.17l-.14.19h0l-.31.23h0l0,0,0,0h0l-.07.06h0l0,0-.17.12h0l.1-.07-.1.09h0l0,0-.08,0h0l.11-.1h0l-.13.12-.45.3-.06,0-.12.08h0l0,0-.11.09-.14.07-.28.09s-.05,0-.08,0h0l-.19.07-.25.1-.35.13h0l-.31.11-.19.05-.29,0-.34-.08-.21,0a4.23,4.23,0,0,1-.87-.2,3.61,3.61,0,0,1-.56-.27l-.29-.23-.24-.13.42.29-.56-.37.14.08-.12-.09h-.06a3.92,3.92,0,0,0-.8-.45,2.75,2.75,0,0,0-.91-.21h-.44l-.1,0h-.06a2.9,2.9,0,0,0-.78.21,1.09,1.09,0,0,0-.23.14l-.08,0-.06,0,0,0-.29.21h0l.05,0-.36.57h0l.23-.37a1.23,1.23,0,0,0-.17.41l-.07.05h0l.06,0a.77.77,0,0,0,0,.34l0,.08h0l0-.09.05,0-.09.17h0l.1-.17h0l-.07.15h0l.07-.15.06,0-.06.11h0l.06-.12h0a5.17,5.17,0,0,0-.28.64l0,.07,0,0a4,4,0,0,0-.21,1.87,3.13,3.13,0,0,0,.36,1.08l-.21-.39,0-.09-.11-.39,0,.16,0,0,0,0v.07l.06.13.08.2.07.26.15.27.32.37h0l0,0,.1.07a2.74,2.74,0,0,0,.55.47.38.38,0,0,0,.17.08l.13.12h0l-.13-.11h.09l.15.12h0l-.14-.11h0l.17.1h0l-.13-.11.18.09h0l-.18-.09h0l-.08-.07,0-.08h0v0l-.06-.12h0l.12.2h0l-.09-.15h0l0,0,0-.08h0l-.07-.19.24.37h0l-.26-.41-.12-.32-.11-.4h0l.08.3,0-.09h0l.11.3v0h0l0,.11-.1-.14h0l.11.17.05.15-.11-.2h0v0l0,.09,0,0c-.07-.14-.15-.27-.21-.41l0-.08-.08-.49,0-.62h0V52.6a.88.88,0,0,0,.18.25v-.07l0,.11h0l0-.47.06-.24,0,.13v0h0a.5.5,0,0,1,0,.13v0h0l0,0v.1h0v0h0a.42.42,0,0,1,0,.1v0l0,0h0l0,0h0v0l0-.07,0,.09h0l0-.1,0-.08h0l.17-.25h0l-.13.72h0l.05-.3h0l0,.31h0l0-.27s0,0,0,0v.2h0v-.05l0,.18,0,0v.1h0v-.08l.12.24s0,0,0,.06v0h0s0,.06,0,.08a.83.83,0,0,0,.07.13h0a1.24,1.24,0,0,1,.16.3v.11l0,.12,0,.19,0,.08.08.27.08,0v0h0v0l0,0h0l0,0a1.42,1.42,0,0,0,.34.25h0v0l.24.17v0h0v0l0,0,.11,0h0l.13,0,.12.09h0a.92.92,0,0,1,.14.14l.13.27h0v0l0,0s0,.06.05.08h0l.09.17h0l0,0a.35.35,0,0,1,.05.08h0l-.06,0v0h0l.06,0v0h0l.18-.17.14,0,.06.09h0v.33s.07,0,.11,0v0h0v0a.77.77,0,0,1,.49.1h0a.62.62,0,0,1,.18.14h0a.77.77,0,0,1,.14.25c0,.1.07.23.17.21h0l0,.25h0l0-.26.09-.08h0l0,.58h0l0-.59a.2.2,0,0,1,.11,0l.05.69h0l-.05-.7s.05,0,.07,0l0,.31.16.52h0l-.17-.51,0-.31.06,0,0,.17v.21l.09.19.06.27h0l-.05-.22.08.15h0l-.1-.19-.09-.41v-.13h0l.24.85h0l-.23-.83h0a.83.83,0,0,1,.2.37h0v0l0,.06h0l0,0,.21.49h0l-.21-.5,0-.07v.13l.32.53h0l-.31-.53,0-.14a.16.16,0,0,1,.1,0l0,.24h0l0-.2v.33h0v-.29l.11.23v0h0l.11.23-.12-.2h0l.17.3,0,.12h0l.17.29h0l-.22-.38,0-.11,0-.42h0l0,.07,0,.1v0h0v-.07l.22.46v.07h0l0,.11,0,.08h0v0h0l0,0v0l.31.51h0l-.34-.55v0l.05-.14.12.31h0l.09.26h0l-.09-.24h0l.06-.11h0v0h0l.05-.09v.08l0,.09h0v0h0s0,0,0,0h0l0,.07h0l0,0v0h0v.05h0l.11-.17h0l-.09.3h0l.11-.21h0v0a2.06,2.06,0,0,1,0,.43c-.1.23-.16.57-.25.75l0,0h0a5.77,5.77,0,0,1-.48.7h0l-.09.08h0l0,0-.11.19s0,0-.07.06h0l-.18,0,0,0a4.23,4.23,0,0,0-1.1.33h0l-.12,0h.08a1.63,1.63,0,0,0-.19.09l-.09,0h0l.08,0h0l-.11,0v0h0l0,0v0l-.18.08h.12l0,0h0l0,.05h0v0h0l.09-.06-.09,0,0,0,0,0h.07l0,0h.05l.58,0h.06l0,0h.42a.44.44,0,0,1,.08.11v.07h0l0,.15,0,.05v0h0v0l0,.1h0l0-.07,0,.12,0,.32h0v-.28l0,.08v0h0v0h0l0,.08.09.2h0l0,0,0,0h0v.05l-14.11-.36v0h0v0h-.1v0a.76.76,0,0,1,.08-.11l0,0h0l0,0h0l.13-.18h0l.07-.09a1.3,1.3,0,0,1,.18-.15l.31-.15h0l-.18.08.34-.19h0l-.32.19.06,0,.23-.13.13,0-.07,0h0l.13-.08.18-.06-.14.1h0l.18-.12.25-.11-.21.22h0l.24-.24.06,0h0l0,0a.65.65,0,0,0,.16-.13l-.07.1h0l.1-.13h0a1.08,1.08,0,0,1,.24-.28h0l.14,0-.1.18h0l.11-.2.07,0c.06,0,.09-.1.13-.15l-.07.2h0l.08-.22s.1-.08.12-.14l-.09.26h0l.12-.37h0a1.36,1.36,0,0,0,.06-.29l0,.08,0,.3h0l0-.26,0,.12h0l0-.16v-.1h0v-.06a1.36,1.36,0,0,0,0-.2l0,.38h0l0-.44c0-.08,0-.16,0-.24l0,.09h0l-.05-.12c0-.11,0-.21,0-.32l.08.2h0l-.09-.22a.38.38,0,0,0,0-.1l.06.13h0l-.07-.16a1.79,1.79,0,0,0,0-.23l.06.19h0l-.07-.22h0a2.37,2.37,0,0,0-.09-.36l0,.08h0l0-.07.05.08h0l-.09-.13s0-.06,0-.08h0l0-.13.16.21h0l-.17-.22.07.05h0l-.08-.06h0v0h0s0,0,0,0l.16.11h0l-.18-.11h0s0,0,0,0h0a.07.07,0,0,1,0,0l.11,0h0l-.11,0a1.87,1.87,0,0,1,0-.25h0a1.21,1.21,0,0,0,0-.18,1.1,1.1,0,0,0,0-.18h0v-.08h0v0h0l0-.06s0-.09,0-.14h0v0a2.44,2.44,0,0,1,0-.47l0,0h0v0l0,0h0l0-.06h0l0,.07h0v0l.08-.15h0l-.07.13V56l.06-.1h0l-.05.09v0l0-.08v0l0-.12h0V55.6h0v.06a.43.43,0,0,0-.05-.12l0-.11,0-.06,0-.06v0h0v0l-.11-.12h0l.06.09h0l0-.05h0l0,0h-.05a1.5,1.5,0,0,0-.34-.16,3.24,3.24,0,0,0-1.18-.25H406l.09,0h.06l.09,0h0l-.27,0h-.29l0,0h0l0,0s0,0-.06.06l-.06,0-.1,0h0l-.44.2h0l.36-.16a2.85,2.85,0,0,0-.37.23h0l-.1.09-.15.1h0l.12-.08-.13.12h0l-.07.08-.2.19v0h0l.1-.05.11,0,0,0h0l-.24.2h0l.23-.2-.21.23v0h0l.06,0,0,0-.08.06h0l.06,0,0,.07v0h0l.09-.1-.06.15,0,.09h0l-.12.06h0l.12-.05h0l0,.07h0l.07-.21.11-.19v0h0v0h0l0,0,.21-.23a2.77,2.77,0,0,0-.27.67l-.11.18v0h0l-.09.08h0v.06l0,.06h-.15l-.07,0h0v0l0,0h0l-.1,0h0l.08,0-.06,0-.14,0h0l.1,0h-.23l0,0h0l-.1,0h0v0h-.08l-.13,0h0v0l.07,0-.1,0,0,.06h-.07v0h0l-.28.07h0l-.11,0h0v0h0l-.19.1,0,0h0l0,0-.07,0-.3,0h0l.07.06h0l-.43,0,0,0h0l.23.07-.09,0a.27.27,0,0,1,.18.11l-.18.18-.1,0,.07-.06.07,0h0l.05,0h0l-.21.17,0,0h0l.12-.05h0l-.2.16h0l.16-.12h0l-.11.09h0l.1-.08a.37.37,0,0,1,0,.18l0,0h0s0,0,0,0l-.35.18h0l.18,0v0l-.26.09h0l.14,0a.74.74,0,0,0,0,.21h-.07l.05-.18v0h0l-.05.21h.1s0,0,0,.06l-.24.31v0h0l.11,0a.33.33,0,0,1,0,.1l0,.07h0l0,0a.88.88,0,0,0-.05.15.68.68,0,0,0,0,.14l0,.08h0l0,0h0a.61.61,0,0,0,0,.19l0,.07v0h0a.7.7,0,0,0,0,.14h0a1.3,1.3,0,0,0,.14.32l0,.17h0l0-.13v0l.09.05v.07h0l0,0h0v.21h0l0-.2.1.05-.06.07h0l.06-.07h0l0,.11h0v-.05s0,0,0,0l0,.16h0l0-.16.07.08,0,.05h0v0h0l0,0a.15.15,0,0,0,.06-.14l0,.21h0l0-.16h0v-.06l0,0,.06.16V61h0v0h0l.05.05,0,0,0,.08h0l0-.05h0l0,0v0l.08.1,0,.09h0v0l.08.08,0,.18h0l0-.17.11.1v.08h0V61.3l.07.06,0,.07h0v0l.06,0,0,.12v0l0,.05v.06h0l0,.06h0l0,0,.08.12,0,0a1.68,1.68,0,0,1,.28.43l-8.74-.24,0-.32v0h0l0,.13v-.06h0v-.07h0l0,.33h0l0-.08a.5.5,0,0,1,0-.27h0l.07-.05h0l-.05,0,.09-.08h0l-.11.09v0l.12-.08h0l-.06,0,.12-.14h0l-.08,0,.08-.07h0l.29-.36.12-.09h0l.16-.12h0l.09-.07h0l.3-.1v0h0l.42-.14h0l.23-.17h0l-.19.14h0l.23-.18h0l.08,0-.06.06h0l.12-.11.06,0,.07,0h0l.09-.07v0h0l-.08.06h0l0,0h0l.21-.18c.07-.06.12-.14.18-.2v0l-.2.2h0l.17-.17-.05.15h0l.05-.17.17-.18h0l-.15.15,0-.06a1.07,1.07,0,0,0,.14-.16,1.18,1.18,0,0,0,.19-.41h0l.1-.3h0l0,.11a3.4,3.4,0,0,0,.08-.46h0l0-.12h0l0-.2h0v.07h0l0,.19a.3.3,0,0,1,0-.1c0-.1,0-.21,0-.32v.11h0l0-.17s0,0,0,0,0-.29-.06-.44l.05.17h0l-.05-.18h0s0,0,0-.06,0-.11,0-.17h0a2,2,0,0,1,0-.34h0l0-.15v0h0l0-.07a.3.3,0,0,0,0-.1h0v0a.56.56,0,0,1,0-.12s0,0,0,0v0h0v0h0V56.3l0-.07,0,.05h0l0-.05a.14.14,0,0,1,0-.06.19.19,0,0,0,0-.08v.06h0v0h0v0l0,.12h0l0-.16h0v-.11l0,.21h0l0-.22h0v0a2.1,2.1,0,0,1,.06-.24h0l.11-.25,0,.07v.09h0v-.08l0-.09h0l.43-.21h.05l0,0h0l0,0h0v0h0v0h-.13l-.11,0h0l.17-.06.15,0,0,0v-.07l0,0h0l-.44-.08,0,0a.47.47,0,0,1-.15-.06l-.06-.07-.05-.12h0l0,.09v0a1.48,1.48,0,0,0-1-.7,1.22,1.22,0,0,0-.27,0h0l.22,0h0l-.32,0h0l-.19,0h0l-.18,0,.05,0h0l-.08.06h0l-.13,0h0l-.09,0-.13,0h0L396,54h0l-.14.1-.12.07h0l-.06.06h0l-.29.24h0l.25-.21h0l-.22.22h0l-.05.1-.08.09h0l0,0h0l0-.06h0a1,1,0,0,0-.05.18l0,0h0a.83.83,0,0,0,0,.15h0l0-.09h0l0,.1h0l-.06.07h0v0l-.07.08h0l0,0h0l0,0s0,.07,0,.08h0l-.05,0h0l0,0a.06.06,0,0,1,.08,0s0,0,0,0l0,0h0l0,0s0,0,0,0A1.45,1.45,0,0,1,395,56s0,0,0,0l0-.06h0L395,56l-.07.09h0l-.06,0h0l-.08,0v0h0l-.07,0h-.05l.08,0-.11,0h0l.13,0h0l-.12.09-.34,0v0h.07l-.22.06v0h.09l-.1,0h0l-.17.09-.17,0v0h0l-.08,0v0h.06a1.75,1.75,0,0,1-.36.19l-.13,0h0l.12,0s0,0-.07.07l-.05,0h-.09l.15-.09h0l-.19.1h.1l-.13.07h0l-.09.06h0l.07,0a.32.32,0,0,1-.1.18,1,1,0,0,0-.15.14l-.2.15h0l0,0-.09.07h0l-.11.06h0l.05,0-.1.09c0,.1.06.19.08.28h0l-.07-.21h0v0l0,.14v.05l0,0a.14.14,0,0,0,0,.06l-.05,0h0v0l.11.27h0l0,.11-.09-.13h0l0,.28h0v-.13a.6.6,0,0,0,0,.23l-.06-.07h0l.07.08a1.31,1.31,0,0,0,.08.21l-.08-.08h0l.11.13c0,.05,0,.11.08.16h0l-.06-.06h0l.09.09s0,0,0,.05a.13.13,0,0,0,0,.06l0,0,.05.07-.09-.09h0l.16.21h0l-.08-.11.12.12h0l0,0,0,.05h0l0,0h0l.07.08v0h0l0,0v0h0l0,.08h0v0h0v0h0l0,.05h0l0-.07v0l0,0h0l0,0h0l0,0a.78.78,0,0,1,0,.21h0l-.07,0h0l.08,0s0,.07,0,.11,0,.1,0,.14h0a1.4,1.4,0,0,0,.09.29v0h0v0h0v0l0,0h0v0l.12.19.05.1v0l.06.09h0l0,0,0-.1,0,0h0l.14.19v0h0l-.05,0h0l.06,0v.31h0V62l-6.63-.18-.19-.27v0h0l0,0H387l0,0,.25-.24h0l.07-.08.06,0,0,0h0l.16-.06h0l0,0,.24-.08h0l0,0,.08,0a.09.09,0,0,0,0,0l.08,0h0L388,61h0l.16-.1.17-.07-.08.07h0l.14-.11a1.11,1.11,0,0,0,.19-.09,1.28,1.28,0,0,0,.26-.2h0c.14-.13.28-.27.41-.41l-.06.1,0,0v0h0l0,.06h0l-.22.2-.29.2h0l.29-.19.26-.25h0l0,0,.15-.27a.23.23,0,0,0,.07-.1.11.11,0,0,0,0,0l.14-.26h0l-.12.22a.8.8,0,0,0,0-.15c0-.06,0-.11,0-.16l.1-.37h0l-.08.3a.76.76,0,0,1,0-.15c0-.07,0-.14,0-.21h0l.06-.28h0l0,.19c0-.12,0-.24,0-.37a1.09,1.09,0,0,1,0-.18h0l0-.28h0l0,.19c0-.17,0-.35,0-.53a.72.72,0,0,0,0-.19l0,0h0v0a.28.28,0,0,1,0-.09h0v-.07l.06-.1h0l0,.07v-.06h0s0,0,0-.05l.11-.13h0l0,0h0l.07-.17.07-.06h0l0,.13h0l-.06.1h0l.14-.26h0l0,0,0,0h0a.53.53,0,0,1,.15-.11l.09-.05.19-.09,0,0,.06,0,0-.06v0h0s0,0,0,0,0,0-.05,0h0l0,0,0,0,0,0-.09,0-.15-.05s-.09,0-.15,0l-.05-.06v0h0c-.06-.06-.11-.14-.17-.2v0h0l-.05-.06v0h0l-.05-.06v0h0v0h0v0l0-.06h0s-.06,0-.08-.09l-.11-.15h0l0-.1h0v0l0,0h0l0,0v0h-.05v0h0l0,0-.12,0h-.33v0h0l-.07,0h0v0h0l-.07.06a2.54,2.54,0,0,0-.54.09v0h0l0,.05h0v0h0v0a1.15,1.15,0,0,0-.27.14h0l-.09.05h0l0,0h0l0,0h0a.7.7,0,0,0-.13.16v0h0v0h0v0h0l-.09.08h0v0h0a.44.44,0,0,1-.08.15.28.28,0,0,1-.11.08h0v0h0v0h0l0,.06v0h0v.08l0,0,0,0h0v0h0l0,0h0l-.06.06h0a.75.75,0,0,1-.07.12v0h0v.06a1,1,0,0,1,0,.1h0v.06h0a.84.84,0,0,1-.06.14h0v0h-.05v0h0l0,0h0l-.06,0h0l-.09,0a1.14,1.14,0,0,1-.32.07h0l.08,0s.06,0,.08,0h-.08l-.15,0h-.13s0,0-.06,0l-.09,0h0l-.41.19h0l.14-.06s-.06,0-.1,0a.2.2,0,0,1-.18.11,2.07,2.07,0,0,1-.33.1l-.17,0h0l.09,0h-.06s0,0,0,.07l-.22,0h.1l.13,0h0a1.48,1.48,0,0,0-.52.22h0l0,0h0l-.16.06v0h.13L384,58h-.08l0,0h0v0h.07l0,0h0l-.2.08h0l-.21.25h0a.06.06,0,0,1,0,0h0l-.09.17v0h0l.05-.11a.56.56,0,0,0,0,.12.55.55,0,0,1,0,.18v0l0-.06,0-.1h0l-.05.11,0,.07-.07.08h0l0,0v0a.61.61,0,0,0-.16.48h.07l-.07.14h0l.06-.12v.32a.15.15,0,0,1,.09-.07v0l0,.26h0v-.21s0,.09,0,.14h0v.1h0V60l0,0a.32.32,0,0,1,0,.19l0,0v.08h0v-.1l.05-.06v.2h0l0-.09a.13.13,0,0,1,0,.06l.06.2,0,.12h0l0-.1v.07h0v.08h0v0s0,0,0,.06h0v.11h0v.06h0l0-.1h0a.43.43,0,0,1,0,.07l0,.12V61h0v-.05h0v0L384,61V61h0l.1.21h0v0h0v-.11l.09.09,0,.11h0v0l0-.07.13.13h0l.07.07h0l-.09-.09,0-.09h0l.23.17h0l.07.05.08.07h0l0,0h0s0,.08,0,.12h0v0h0l0,0c-27.9-.79-54.6-1.66-67.07-2.35-29.56-1.66-108.33.49-141.19,1.81s-49.54,1-49.54,1-1.49-3-3-3-3,0-3.79,1.23-2.32,1.24-2.65,0-1.48-4.53-4.79-3.71-1.81,3.46-4.29,3.71-15.63-1.49-25.6,0C35.19,67.66,0,67.77,0,67.77V2674.34H1922.37ZM383.87,60.82h0v0Zm-.28-.62v-.07Zm.07-1.88.12-.07h0l.1,0-.16.09a.45.45,0,0,0-.13.11l.07-.08Zm.25-.17-.22.14.06-.08Zm0,2.77,0,0v0s0,0,0,0Zm.14.26L384,61l0,0,0,0Zm0-3.26h0Zm.06,3.23,0,0h0Zm.12.07,0,.08-.12-.13v0s0,0,0,0Zm6.27-4.79h0Zm-.58.42,0-.05-.05.1Zm-.24.31.06-.12,0,0h0l.07-.17-.06.16Zm-.46-2,0,0v0Zm-.58-.07Zm-.06,0,0,0v0h0Zm-.89,6h0l.1,0Zm-.11,0,0,0,.07,0h0Zm-.13,0,.12,0,0,0-.13,0Zm-.09-5.55Zm5,3-.1-.23,0,0A.83.83,0,0,0,392.43,58.64Zm.05.2a.79.79,0,0,0-.12-.15v0l.12.18Zm.57,1.28v0h0Zm0-2.78h0Zm.27-.24-.06,0h0S393.35,57.08,393.36,57.1Zm.16,4.24v0h0Zm.2.19-.11-.15.06,0,0,.07ZM399,54.81l.08,0H399Zm-.23-.14.28,0h0Zm-.44.83s0-.06,0-.08,0,0,0-.05l0,.08h0Zm-1.61,4.76h0Zm-.35.19v0h0a2.22,2.22,0,0,0,.32-.14l0,0-.13.09h0Zm0,0,0,0v0Zm-.36.12c.13,0,.24-.12.37-.16l0,0h0l-.14.08h0Zm-.62-6,0-.05h0l.13-.12C395.45,54.44,395.39,54.49,395.34,54.56Zm-.15.55h0l.05-.06a.15.15,0,0,1,0,.07ZM395,61.38l.06-.09h0Zm-.13.25s0-.06,0-.09v0h0l.08,0-.12.14h0Zm6.94-2.5-.08,0,.07-.09A.17.17,0,0,1,401.76,59.13Zm.15-.68,0,0s0,0,0,.06l-.11,0Zm.22-.2a.24.24,0,0,1-.06.08l0,0-.14,0Zm.32,2.45Zm.05-3.2-.1,0-.15,0Zm.78,4.29,0,0h0Zm0-.06,0,0h0Zm-.05-.26,0,0v0Zm-.58-.6v.05l-.06-.08v0Zm.32-3.54v0l-.21.07h-.1l0,0,.25-.05.09,0Zm0,0H403l-.06,0Zm.19-.08h.11l-.19.07H403l.12-.06Zm.13,0h0Zm.13,0-.1,0,0,0,.1,0Zm.05,0h0Zm1.41-1.53,0,0-.14.07.05,0A.31.31,0,0,1,404.85,55.65Zm3.21,4.24h0Zm-.15-2h0Zm0-.1h0l0,0v.06h0Zm0-2.09h0v0Zm-.18-.37h0l0,0,0,0Zm-.13-.08h.07l.05.06v0A.69.69,0,0,0,407.54,55.3Zm-1.73-.44H406a.92.92,0,0,0-.16,0Zm12.13,6.62h0Zm.18-.17h0l-.09,0v0Zm1.08.39v0h0ZM415,52.56s0,.08,0,.12a.54.54,0,0,0,0,.1Zm-.09,2.7h0l0,0Zm-.06-.06h0l0,0,0,0v0Zm-.27-.5,0,0,.11.22h0C414.65,54.88,414.62,54.79,414.57,54.7Zm-.84-.24-.09-.12-.08-.13Zm.25-4.93a2.39,2.39,0,0,0-.23.22l.09-.14h0Zm0,5.17-.14-.11-.09-.17.1.1Zm.18-1.36,0,.36h0l.07.41a3.37,3.37,0,0,1-.25-.9l.1.36h0l-.11-.38a2.12,2.12,0,0,1,0-.44l0,.19h0l0-.23a1.49,1.49,0,0,1,0-.21s0,0,0,.08v.77h0Zm.25-.68v.2l0-.13a.59.59,0,0,1,0-.13v0h0Zm.61-.41v0h0v0Zm-.24.42v0l.09-.15Zm-.06.06v0Zm0-.13,0,0h0l0,0,0,.07v-.08h0v0Zm.13-.25v0Zm.13-.1-.06.1,0-.05h0l-.07.15-.12.19,0-.05.1-.18v.06h0l.06-.19a1.86,1.86,0,0,0,.1-.2Zm0,0v.06l-.14.2.05-.13Zm0-.21v0h0Zm.12-.22a3.1,3.1,0,0,0-.1.36l0,0v0h0l0-.18,0-.06h0v0a.54.54,0,0,1,.05-.11Zm0,0h0Zm.38,3.05h0Zm0,.11-.08-.06-.07-.26,0,0v0h0s0,.09,0,.13l0,0v.06h0v0l.07,0Zm.05,0v0l0,0v0Zm0,0h0Zm.47.36-.05,0h0Zm.07,0h0Zm0,0h0l0,0Zm.11,0h0Zm0,0h0Zm.16,0-.08,0h0l0,0,.05,0h0Zm.58.61h0l0,0Zm0,.07,0,0,0-.06,0,0Zm.17.06-.05.05v0Zm1.9.93v.1l0-.11Zm0,.19.07.31-.07-.14Zm.05-.15h0Zm.25.35v0h0Zm.18,0v0h0Zm0,0v0h0v0Zm.57.57h0Zm-.06.13h0ZM420,57.8v0l.07,0,.12.37h0v.06Zm.09,0,.06,0,0,.24Zm-.26,0h0l0-.14.06,0,0,.41-.1-.24Zm0-.18,0,0,0,.1Zm-.09-.07,0,0,.05.21v0l-.1-.22v-.05Zm.06.05h0v.08Zm.42-7s0,0-.05,0l-.41,0h.18Zm.09,7.3-.07.26,0-.33Zm0,0,0,.15h0l0-.15Zm0,.19h0v.19l-.07-.18.05-.13v0Zm0-.17v0Zm.06,0v.42l-.05-.12h0l0-.22,0-.12,0,0Zm.12.14,0,.13-.07.13V58A.52.52,0,0,1,420.55,58.15Zm0,.06h0v0h0l0,0,0-.07S420.57,58.19,420.58,58.21Zm.08.19,0,0,0,0v-.05Zm.06,0,0,0v0Zm.11,0-.1.18.07-.21h0Zm9-13.87,0,0v0h0v0h0v0s0,0,0-.05l0,0h0v0Zm0-.09,0,0,0,0A.2.2,0,0,1,429.82,44.43Zm.38,1,.1.13h0v.1h0v0h0l0,0a.19.19,0,0,0,0-.13A.57.57,0,0,0,430.2,45.45Zm-.15-.13.06,0,.08.09-.08-.09Zm-.3-.1h0l0,0Zm0-.17Zm0,0h0l.06-.09Zm0,0Zm0,0h0l0,.08S429.68,45.08,429.69,45.05Zm0-1.2.07-.06h0v.08h0l0,0v0l.05-.06h0l0,0Zm-.1-.35v0h0l0,0,0,0S429.59,43.51,429.58,43.5Zm-.06-.08h0Zm0-.06.05,0,0,0v0h0l0,0v0l0,0A.09.09,0,0,1,429.5,43.36Zm0,0,.06,0h0v0h0l-.06.05A0,0,0,0,1,429.49,43.32Zm0,0,0,0h0l-.06.05A0,0,0,0,1,429.48,43.28Zm-.12,2.37Zm0,.08h0l0-.06,0,0Zm-.07-2.65v0h0l0,0h0s0,0,0,0,0,0,0,0l0,0Zm0,.1,0,0v-.05l.05,0Zm0,.1a.09.09,0,0,1,0-.05l0,0h0l0,0v.07h0Zm0-.24,0,0v0h0l0,0s0,0,0,0Zm0,0,0,0h0l0,0Zm0,0h0Zm-.38,4.63h0l0-.13,0,.16h0Zm.09-.29v0l0,.08v0Zm-.1.41v-.08h0l.08-.31v0h0v0h0v0h0l0-.13.09-.25,0,.39-.18.42Zm0-.06h0Zm0,0,.07-.19h0Zm-.09.13a.36.36,0,0,1,0-.09h0l0,.06h0l0,0h0v0h0l0,0h0Zm0,.07h0Zm.23,3.35s0-.06,0-.1v.08h0v0Zm0-.12v0Zm0-.28.08.22v0h0l0,.14-.07-.08,0-.19A.7.7,0,0,0,428.85,50.84Zm-.41-2,0-.42,0,0,0,.29Zm0,.13h0l0,.18V49l0-.24v.11h0l0-.27v-.1h0Zm0,.31v0Zm0-.06Zm.2.63-.13-.28h0l0-.12h0l0-.15h0l.08.19Zm0-.05v0h0l-.07-.22,0,0Zm.16.63-.07-.27h0v0l0,0h0l.1.33Zm-.07,2.38h0l0-.28.06-.42v0Zm0,.94v0Zm0-.05h0l-.07.38c0-.31,0-.62,0-.92v0h0l0-.24h0l0,.16h0v.15Zm-.08.66,0-.12v.07h0l0-.2v0l0,.53Zm0,.07.11-.62,0,.37,0,.17h0Zm-.07.18a.61.61,0,0,0,0-.13h0a1.83,1.83,0,0,0,.07-.32l-.06.36h0l0,.12v0Zm0,.17,0-.1,0-.05v.05Zm-.12-5.48v.06h0l.14.4h0l.13.32,0,.13c-.07-.17-.16-.33-.24-.5v-.06h0v0a.84.84,0,0,1-.06-.14A1.5,1.5,0,0,1,428.36,49.33Zm0-.25h0v0a2.15,2.15,0,0,1,0-.34h0l0,.23h0v.22l0,.12v.05h0A1.77,1.77,0,0,1,428.35,49.08Zm-.56-6.26h0Zm.47,12.53,0-.08a.43.43,0,0,0,0-.07Zm-.07.19v0h0v-.07a.67.67,0,0,0,.06-.12l0,.12Zm0,.25,0-.13,0-.07,0,.17Zm-.31.46.26-.39v0l0,.08h0v0l0,0h0Zm0,0v0l.08-.13h0l0,.08,0-.11c.12-.21.23-.42.34-.64l-.07.38v0h0Zm0-.06s0,0,0,0l0,.06Zm-.09.21.07-.1h0l0,0-.05.06Zm0,0v0h0a.76.76,0,0,1,.08-.11v.06Zm-.15.15.12-.16,0,.07Zm-.09.18v0l.18-.18h0Zm0-13.88Zm-.2.43,0,.16V43.4l0-.07Zm0-.06a.13.13,0,0,1,0,.06.43.43,0,0,0-.06.22v0l.05-.22Zm.11-.25h0l0,0Zm.05-.1s0,0,0,0h0l0,0,0-.08Zm-.09,14v0h0l-.16.2,0-.06.07-.09h0l.09-.14h0v0l0,0v.07l-.09.12Zm-.19-13.16v0l0-.07h0Zm0,.26,0-.08h0l0,0h0Zm-1.56,1.3-.06.08-.05,0Zm.76-.63a2.43,2.43,0,0,0-.25.2l.22-.19Zm.39-.33h0Zm0,0h-.05Zm0,0h0Zm.07-.07h0l0,0,0,0Zm0,0,0,0h0Zm-.06-.09h0Zm0,0,.09.05h0l0,0,0,0Zm.08,13.27,0,0,0,0Zm.05-13.29,0,0,0,0-.06,0h0l.06,0h0l-.11-.06h.13Zm.06,0h0Zm-.13,13.38h0l.19-.29-.11.24Zm-.11.1,0-.1s.05,0,.07-.07v.05l-.06.08Zm-.24.18c.08-.07.16-.16.24-.24l0,0h0Zm0-13.26-.11.09-.05,0h0v0h0l.05,0Zm-.08,13.35h0l0,0Zm-.16.12,0,0a1,1,0,0,0,.13-.09l0,0Zm-.19.13h0l.14-.1,0,0Zm-.08,0,.06,0h0Zm0-13.24-.09.07h0Zm-.15,13.34,0,0,.1,0h0l-.08,0h0Zm-.1,0,0,0,.09,0,0,0Zm0,0,0,0h0l0,.05Zm-.15.07,0-.06.11,0,0,0-.08,0Zm-.19.07h0l.16-.08h0l0,0,0,.06Zm-.05,0,0,0h0Zm-.42.2.14-.08-.21.18Zm-.28.17,0,0,0,0v0Zm-.2.15h0v0s.05-.08.08-.11h0Zm0,.06h0l0,0h0Zm-.15.15.06-.06h0v0h0Zm0,.07Zm-.12.13,0,0h0ZM702.87,44.46H703l-.16,0h0C702.87,44.42,702.88,44.4,702.87,44.46Zm3,2.85v0Zm25,6.71a.84.84,0,0,0,0-.1.7.7,0,0,0,.23.11.53.53,0,0,0-.08.22H731l0,0-.05-.08A.2.2,0,0,1,730.88,54ZM819,55.91l-.08-.06h0l.1.07Zm-.47-.25h-.08l-.12-.09h0v0h0l0,0v0h0Zm0,.05h0l.07.05h0l-.12-.07h.06Zm.1.06h0l-.08-.06h0Zm0,0h0l.14.1h-.05l-.1-.07Zm.08,0-.07,0,0,0Zm.1.08.11.08-.09,0-.19-.13Zm.2,0h0l-.11,0h0l0,0h0Zm.68,0,0,0,.07,0h0Zm-.08,0h0l-.1-.06h0l.07,0h0l.07,0,0,0Zm0,0,0,0,0,0Zm-.09,0,0,0h0v0l-.08-.06h0l.12.09Zm-.13-.14h0Zm0,0,0,0,0,0Zm-.07,0h.07l.08.06h0Zm0,.08-.06,0h0l.1.06h0Zm-.17-.07.12.07h-.05l-.13-.09Zm0-.06h0l-.07,0,0,0Zm.07-4.44-.07.25.07-.29Zm0,4.47h0Zm0-.05h0l0,0h0l0,0h0Zm0-4.6h0v0Zm0-.1h0v0h0v.05Zm.44-1.45-.22.32v0h0l.05-.07a1.19,1.19,0,0,0-.08.2h0a6.23,6.23,0,0,0-.18.88h0l0-.2,0-.16.05-.15h0l-.07.21v-.2l0-.17v.14l0,.1h0v-.26l.08-.27h0l.19-.25.06-.06h0Zm.37,6h-.07v0h0Zm-.38-7.24h0Zm.06-.21h0v0h0v0Zm0,.11h0l0,0Zm.09-1.17h0a.67.67,0,0,0,0,.2l0,0h0Zm.07-.09s0,0,0,.05l0,0v0l0,0,0,0Zm0,.65L820,47.4v0l0,.07A1.55,1.55,0,0,0,820.06,47.63Zm.08.24h0l0-.15A.88.88,0,0,0,820.14,47.87Zm.05.15h-.09l.08,0Zm.07.58v0l0,0,0,0,0,0v-.05l0,0h0Zm0,7h0Zm0-6.76h0Zm1.34-1.05,0,0h0Zm-.42,7.78h0Zm-.22,0-.07-.05h0l.08.05Zm0,0h0Zm-.32.08h0l-.05,0,.14.06h-.08Zm-.34,0h0Zm0-.06h0Zm.08,0,.13.08h0l-.07,0h0l0,0Zm.21.1h-.05l-.09-.06h0l0,0Zm0-.12.16.08h0l-.17-.08Zm.17,0,.06,0h0l.08,0-.09,0h0v0l-.18-.09h0l.07,0h0Zm0,0,.07.05-.11-.05Zm.07-7.59-.06,0H821Zm0,0h0l0,0h.05l0,0h0l0,0v0h.09l-.08,0-.19,0,.09,0Zm.07-.06h.08l-.06,0h0v0l0,0h.05Zm.12,0h0Zm.43,0h0l-.12,0h0l-.41.09.1-.07h.09v0l.3-.06h0Zm.28,0h-.12l-.1,0h0l.06,0h0l-.1,0,.1,0Zm1.65,8,.13,0h.17l-.15,0Zm0-.09h0Zm-.3,0h0Zm-.18,0h0Zm-.68,0h0Zm0-7.88v0l.06,0-.19,0,.13,0h0l0,0h0Zm.21.05h0l-.11,0h.07Zm.07,0h0Zm.1,0h0Zm0,7.77h0Zm.17-7.77h0Zm.44.16h-.17l.07,0,.1,0Zm.09,7.54-.06,0-.19,0h0l-.31,0h0l0,0h0a3.44,3.44,0,0,1,.45,0Zm.14,0h-.14l.09,0h0v0Zm.16,0h0Zm.15,0h0Zm.82.35-.67-.27.13,0,0,0,0,0h0l.09,0,.05,0h0l.27.14Zm.49.15-.21-.07-.21-.11h0L825,56h0l.17.08Zm.2.16-.1-.06.07,0Zm.07,0,.47.41,0,0-.22-.18Zm.74.57-.11-.07-.54-.49a2.8,2.8,0,0,1,.33.24h0a1.49,1.49,0,0,1,.2.15A1.1,1.1,0,0,1,826.22,56.87Zm.48-8.78h0ZM827,58.68l.32.83-.18-.41Zm-.15-10.22Zm-.22,9.1h0l0,0,.17.39,0,.11Zm-.14-.17,0,0,0,0Zm-.13-.36.07.18-.15-.3h0Zm0-8.84h0Zm.19,0h-.19l.07,0h.12Zm.32,0,.12.06h-.07l-.07,0h0l-.24-.06h0l.13,0h0l.13.05h0l-.11,0Zm.06-.08-.17,0H827l-.06,0Zm.08,0h0l0,0h0Zm.19,0H827l-.07,0h0Zm-.21,0h0l-.05,0h0l.1,0h.11l-.12,0Zm.41.28h0a1.46,1.46,0,0,1-.22,0l-.08,0-.08-.05h0l-.13-.06a.25.25,0,0,0,0-.07h0l0,0h0l-.1-.06.16,0v0Zm-.39-.07,0,0h0Zm.56,11.39,0-.07-.6-1.58,0-.12C827.1,58.73,827.33,59.32,827.52,59.92Zm0,.12,0-.09h0V60Zm.54,1.43h0l-.18-.34,0,.08a1.62,1.62,0,0,0,.1.18l0,0h0Zm.84,1-.17-.19.16.15Zm1.31,1.77,0,0h0ZM829.39,63l0,.15-.07-.21Zm.35.53v0Zm.79.77-.11,0-.13,0h0l-.1,0-.68-.71-.45-.87,0,0h0l-.06-.07,0-.05,0,0h0v0l0,0v0l0,0h0a3.25,3.25,0,0,1,.31.42h0l.16.45h0l-.07-.28.26.38.08.26h0v0l0-.13.19.24.08.18h0l0-.09h0l.13.17h0l0,0,0,0v0h0Zm.07,0-.08,0h0Zm0,.07-.29-.11-.07,0,.36.15Zm0,.06-.18-.09.18.07Zm.15,0-.14-.06h0l.14,0Zm.12.09h0l-.2-.08v0l.2.07Zm30.19.4v0Zm-.6-1.91h0v0l0-.21v0h0l0-.17v-.06Zm-.1.34,0,.26-.05-.28Zm.06.08,0,.18h0l0-.19Zm.06-1.19h0v0Zm0,1.21,0,.16,0-.06,0,0h0v0h0Zm.09-.95.07.23,0,0-.1-.31,0,0Zm.1,1.87.12.38h0V65Zm0,.66v0h0l.11.36.05.67L860.76,65Zm0-2.29.06.11,0,0Zm0,.21,0,.11v.05l-.07-.2Zm.06.32-.05-.11h0v0Zm.06.35L861,64l-.12-.5h0Zm0-.28.06.19-.05-.11Zm.06.88h0v.5h0l-.16-.84v0l0,0,0,0,.07.3Zm-.29-.66.05.12.06.35Zm.23-.64-.18-.31,0-.13.37.6Zm0,.12,0,.09-.11-.17Zm.31.66-.1-.23.33.47Zm-.24-.4h0v.06h0l0,0h0l-.06-.21.21.3.11.27-.1-.12Zm0,.15v-.09l0,.09h0Zm.07.89-.1-.59h0v0h0l0,.31Zm-.08.38v-.5h0l.08.54v.16l-.08-.19h0Zm0,1.34,0-.59h0l0,0-.09-.34,0-.3h0l.06.33v.11h0v0l0,.13v.36Zm-.16-.39.11.51v0h0l-.05.26,0-.39h0V66Zm0,.26v0l0,.29,0-.06Zm-.11-.14h0v0l-.09-.48h0l.13.54,0,.28Zm-.23-.83h0l.19.75-.16-.5Zm-.06-1,0,0,0,0v0h0l0-.05,0-.12h0v.07l0-.06,0-.34h0v.12l0,0,0,0v0l0,0v0l.15.78-.08-.2Zm-.17.43h0l0,0h0l.1.49h0Zm-.06-3h0c0-.16,0-.33,0-.5l.13.62h0l0-.07ZM860,63.88h0l.17.92-.14-.46Zm-.18-.35v-.11l.13.44V64l-.13-.45h0Zm-.48-3.59v0h0Zm0,0,0-.2v.2Zm0-1.36.09,1,0,0h0v-.2h0l0,.57h0v0l0,.28Zm373.16-9.11a1,1,0,0,0-.25.42h-.14c0-.11,0-.22.07-.33a.64.64,0,0,1,0-.07c0-.09,0-.11,0,0A1,1,0,0,1,1232.52,49.47Zm3.85,3.14a1,1,0,0,0,0,.16s0-.09-.08-.14Zm3.74,3.09v0h0ZM1278.33,25s0-.07,0-.11S1278.38,24.9,1278.33,25Zm1.48-3.9a.87.87,0,0,1,.23,0,1.07,1.07,0,0,0-.27.09v0C1279.81,21,1279.83,21,1279.81,21.05Zm5,4.78a.06.06,0,0,1,0,0s0,0,0,0Zm42.06,11.28a.89.89,0,0,1,0-.17,1.15,1.15,0,0,0,.39.18,1.09,1.09,0,0,0-.14.37H1327l0-.06-.08-.13A.23.23,0,0,1,1326.86,37.11ZM857.93,51.34s0-.09,0-.13h0Zm0-.28,0-.1,0,0v.07Zm-.09-.09h0l0,.15-.17-.45.13.28Zm-.12-.37.1.2,0,.07ZM835.47,71.71v-.07h0Zm-412.41-11v0h0v0Zm0,0V60.6h0v0Zm0,0h0v0h0Zm0,.22,0-.08v.08Zm0-.13v0l0,.09v.11h0Zm-2.55,1.69h0l.1,0Zm-.74.26h0Zm-.11,0h0l.05,0Zm-.18-.06.05.05h0Zm0,.05h0v0Zm-32.61-1.12h0Zm-1.44.11Zm.4-.1-.15,0h-.2l.32-.06Zm-.22.07,0,0h0Zm.56-.12,0,0h0Zm.1.08v0l0,0h0Zm0,0v0h0v0h0Zm0,0Zm.11.13h0l-.07-.09h0l.06.08-.95,0v-.12l.08,0h.06l.06,0h.06l.13,0v0h0l.06,0h0l-.12.13h0l.13-.13,0,0v0h0l0,.06h0l.06-.08h0l0,0h0l0,0v0h0l.15-.11h0l0,0v0h0v0l0,.09.09.05A.6.6,0,0,0,386.47,61.82Zm.11-5s0,0,0,0h0Zm.3,4.64v0h0Zm.21-.13-.06.06,0,0Zm.13-.07-.07.09,0-.06Zm.11-5.54h0Zm-.12,5.62.09-.11.08,0,0,0h0Zm-.14.13.07-.07h0l.11-.14h0l-.12.16h0l0,.05Zm-.1.05.17-.21,0,.09-.06.07h0Zm0,0Zm0,0h0l0,0v0h0Zm0,0v0h0v0l0,0h0v0l0,0h0l0-.06,0,0h0Zm.2.35h0l-.06-.1h0l-.05-.06h0l0,0h0Zm6.68-5Zm.69-.35-.08,0h-.05Zm.11,0Zm.17-.14h0l-.07,0h0S394.72,56.32,394.75,56.31Zm9.3.63H404v0Zm.09,5,0-.07s0,0,0-.06h0Zm.22-5.12h0l0,0h.05Zm0,0h0Zm.17-.27s0,0,0,0l0,0h0l0,0,0,0h0Zm0,.07h0l0,0s0,0,0,.06h0v0Zm0,.06a.29.29,0,0,0,0,.09l0,0v-.06Zm.05-.23v0l0,0Zm.42,5a.24.24,0,0,1,0,.08h0l-.05-.06h0Zm0,.36a.72.72,0,0,1-.34.41h0l-.07,0h0v0h0v0h-.22v0l0,0,0,0-.09-.24,0-.26h0a.4.4,0,0,1,.16,0s0,0,.08,0l.16,0,.09,0h0v0h0l.08-.06h.16l0,.07,0,.07h0l0,0h0v.07h0v.08l0,0h0l0,0Zm14.41.71h0l0-.06.11.14.08.08h-.11l-.08-.08Zm0-.12,0,0,0,0Zm-.13-.12.1.12,0,0h0l0,0,0,0,0,.07-.08-.16Zm.11.1Zm0,0Zm0,0h0Zm0,0Zm0,0v0h0Zm-.2-.36,0,.07,0,0Zm0-.1h0v0Zm0,0h0l0,.06h0v0Zm0,0Zm0,0h0Zm0-.13,0,.09h0l0,0v-.13h0l0,0v0h0s0,0,0,0h0v0h0Zm0,0,0,.07h0l0-.1Zm0,.07v0h0Zm.05,0V62h0l0,0v0l0-.06Zm.05.17,0,0h0l0,0h0l0,0h0l-.05.08h0l0-.07V62.1h0v0l0-.07v0l0,0h0v.09h0V62a.43.43,0,0,0,0,0h0S419.38,62.12,419.38,62.13Zm0,0h0v0Zm.06.14v0h0v0l-.07-.09.06,0h0l-.06,0,.05-.08h0v0h0a0,0,0,0,0,0,0Zm0,0Zm0,0h0v0h0Zm0,0h0Zm0,0,0,0h0Zm0,.06h0l0,0Zm.21.2,0,0-.07,0h0l-.06,0-.05-.05h0l-.08-.05v0h0l0,0a.43.43,0,0,0,.17.16s0,0,0,0Zm0,0h0l0,0h0Zm0,0Zm.07,0h-.05l0,0Zm.06-2.08,0,.08h0l0,0v0l.06-.09Zm.1,2.13h-.2v0l.06,0,.05,0h0Zm.58-1.75-.11.15.06-.1Zm.87-1.18.12-.06-.35.41C421.31,60,421.39,59.9,421.46,59.78Zm.2-.32,0-.05h0l-.06.09Zm.3-.55h0l0-.07v0l-.16.22c0-.08.09-.16.13-.25Zm.12-.24,0,.15,0,0v0h0l0-.06A.41.41,0,0,0,422.08,58.67Zm-.05.21v0Zm0,0Zm0-.1,0,0,0-.09Zm0,.05,0,0h0l0-.05Zm0,.06,0,.05v-.05l0,0Zm0,0h0v0l0,0v0l-.1.12L422,59l0,0h0l0,.07-.09.06h0l.06,0-.15.2-.11.12h0l0-.07h0l.12-.22h0l.14-.2h0v0l-.09.08h0L422,59h0l.06-.06Zm-.11.14,0,0-.1.12Zm.16-.15v0l-.05,0Zm0-.12h0v0l0,0v0l0,0Zm0-.07h0l0,0v-.11h0v.06Zm0-.05h0Zm0,.09v0l0,0v0l0,0h0Zm0-.06,0,0h0l0,0Zm0,0v0h0v0Zm0,.2h0v0Zm0,.08v-.08h0l.07.2,0,0h0l0,0h0v0l.12-.09,0,.14h0l0-.15h0l.06.25h0l0-.1v0h0l.07.21h0l-.07-.22,0-.06.06.12h0l0,.18h0l0-.28,0,0,.09.26,0,.07h0l0-.05.1.25h0v0l0,.11,0,.17h0V60a1.23,1.23,0,0,0,0,.17.06.06,0,0,1,0,0l0,.27h0v0h0v.36h0v-.09l0,.1h0s0,0,0,0v0s0,0,0,0h0v0h0V61h0v.09h0v.09s0,.07,0,.1h0a3.6,3.6,0,0,1-.39,1.2l-.05.07h0l-.22.11h0l.21-.1,0,0a1.21,1.21,0,0,1-.16.16l-1.07,0,0,0h0v0h-.1l-.08,0,.11,0h0l-.11,0h0l.13,0h0l-.14,0a1.14,1.14,0,0,0-.26-.09l-.07,0h0l-.3-.09-.08,0,.16-.05h0l-.18.06,0,0a.15.15,0,0,1-.09-.06l.12,0h0l-.12,0,0,0v0l.1,0h0l-.1,0a.45.45,0,0,1,0-.16l0,0h0a.27.27,0,0,1,0-.09,2.29,2.29,0,0,1,0-.25l.05,0h0l-.05,0a.28.28,0,0,0,0-.09,1.67,1.67,0,0,1,.12-.23,1.74,1.74,0,0,0,.1-.19l.18-.25.08-.07a2.38,2.38,0,0,0,.39-.51l.09-.13.27-.32-.48.65h0l.57-.76.09-.12h0l.14-.18h0l-.16.22,0,0h0l-.11,0,.07-.1,0,0h0l.17-.24.09,0h0l-.06,0,.08-.1.24-.28.08-.06h0v0h0V59h0Zm.83.91v-.06a.11.11,0,0,1,0,0Zm0,0v-.22a.05.05,0,0,0,0,0v.18Zm-.2-.46h0Zm0-.08v0h0Zm0-.06,0,0s.05,0,.06.08v0h0l0-.06Zm.05.06a1.45,1.45,0,0,1,.11.29v0h0v-.06h0l0,0-.09-.23h0l.08.16h0v0l-.08-.16Zm-.42-.42,0,0h0l0,0Zm0-.07Zm0,.06h0Zm0,0h0l0,.11h0v.14l-.06-.23h0Zm.08.12h0v0Zm0-.1a.08.08,0,0,1,0,0l0,0v0h0v0Zm.07.08,0,.1,0,.05v-.1h0v0Zm0,0,0,.07h0Zm.06.08,0,0v.11l-.05-.12Zm-.28-.08h0l0-.07v0h0l-.09.07v0l.05,0Zm0-.07h0v0Zm-.12-.08h0v0h0Zm.1.2v0h0l-.07-.2,0,0h0l0,0v0h0v-.12l.07,0v0h0v.27h0Zm0,0V59h0Zm0-.21v.09l0,0v-.14Zm0,0,0,0v-.05Zm0,0,0,.09h0l-.07.06h0l0-.1Zm0,0,0,0v0Zm.54-9.29-.13.13h0l-.07.07-.12.06h0l-.1.08a.93.93,0,0,0-.1.05h0l0,0h0l.4-.29Zm.21-.11-.17.16-.06,0-.13.08h0l.19-.19Zm.24-.12-.34.23.14-.13Zm.52,11.22a3.38,3.38,0,0,1,0-.45V60s0-.07,0-.11l-.05.67Zm-.05-11.66h0l.12-.15a.65.65,0,0,1-.1.15Zm-.33.34-.26.12.12-.11.36-.24h0l0,0,.06,0A1.93,1.93,0,0,1,423.49,49.24Zm.63,13h0a.65.65,0,0,1-.16-.17,1.18,1.18,0,0,1-.07-.2Zm.84.32h0Zm.1,0h0Zm.1,0h-.08Zm1,.28h0ZM714.39,44.81h0l0,0Zm0,1.4a.23.23,0,0,0-.07.07l0,0,.09-.07A.06.06,0,0,0,714.4,46.21ZM831.11,65.27v0Zm.07-.48v0Zm.1.11a.16.16,0,0,0,0,.07v-.1Zm.24,7.23h0v0h0Zm.44-.2h0l-.07,0,0,0Zm.15,0v0h0l0,.11h-.07l0-.08h0ZM834,66.15l-.25-.48.06-.13A5.44,5.44,0,0,0,834,66.15Zm1.24,3.32h0l0-.17,0,.16Zm0,.46h0v0l0,0,0,.26-.08-.09h0v0l.11.12.12,1.28h0l0,0,0,.26v0l0,0-.06,0h0l.06.06-.09.09h0v0l-3.76.07v0l.12-.08h0l.07,0h0l-.06,0h0l.06,0h0l0,0,0,0h-.06v0h.06l0,0,0,0h0v0h0l.07,0h0v0l.1,0,.07-.09h0l0,0,0,0v-.08h0v0h.06l0,0v0l0,0h0c0-.21,0-.42,0-.63v0l0,.41,0,0,0,0-.07-.89V70.4l.06-.8.16-.86-.15.82v0h0l.2-1.06A8.8,8.8,0,0,1,833,67.2l0,.16h0l0-.22,0,0,.69-1.42.2.38-.19-.3h0v0l.31.47c.06.17.14.33.21.49h0v0l0,0s0,.11.08.16l.24.93h0l-.2-.8s0,0,0,0c.1.18.17.38.26.57s.13.35.19.53l-.27-.61h0v0l.31.73.25.76h0v0l0,0,0,.21,0-.06h0v0l.09.1Zm.08.08,0-.05,0-.33C835.31,69.76,835.34,69.88,835.36,70Zm0,.33,0,0,0-.28,0,0s0,0,0,.07S835.39,70.27,835.4,70.34Zm.07,1.27h0l-.07-.81h0l0-.45,0,.06A9.87,9.87,0,0,1,835.47,71.61Zm2.1-7.57-.5,0a.23.23,0,0,0,.12-.06l0,0Zm3.06-.32h-.2l.13,0Zm1.54.1-1.13-.1h-.11l-.16,0,.24,0A4.67,4.67,0,0,1,842.17,63.82Zm5.43-.44.06,0-.52.13Zm.39-.06-.28.07-.07,0,.26-.08Zm0,0v0l-.07,0,.06,0Zm.14,0h0Zm.19,0,.44.3-.57-.15h0l-.13-.11h0l0,0h.06l.08-.07,0,0Zm.07,0,.06,0h0l.56.4-.19,0-.48-.33Zm.08,0,0,0,.47.24h-.19Zm0,0h0l-.08,0Zm.12-.07,0,0h0l0,0,.06-.06Zm.7.32H849l-.44-.22h0l0-.06,0,0,0,0h0l.19.07-.08,0h0l.19.06.19.1h0v0l0,0Zm.28.22h-.51l-.23-.17H849l.18.09h0l-.15-.07h.24A2.43,2.43,0,0,1,849.57,63.65Zm.49.77h0l-.06,0,0,0,0,0Zm1.36-16.59h.17l-.38.08Zm.76,17.4h-.06l-.18-.15,0-.22.05-.05,0,.29.07,0,.06-.06h0s0,0,.05.05h0l0,0Zm0,0h0l0,0h-.08Zm-.31-.57,0,0,0-.1,0,0Zm0-.11v0Zm0,0-.23-.38.06,0,.09,0a.63.63,0,0,1,.09.24Zm-.37-.52h0a.33.33,0,0,1,.16.07Zm.73-16.34-.49.11-.27,0,.27-.1Zm0,17.59Zm.06,0h0l0,0Zm0,.11.07.13.13.4-.21-.52Zm.19.07c0,.08,0,.17.05.25l-.17-.28,0,0h0l.05,0,.1.12Zm.16.84-.22-.68.13.22A3.4,3.4,0,0,1,852.69,66.25Zm-1.47,5.48h0L837.14,72a6,6,0,0,0-.21-2l.06.07h0v0l-.09-.11a9,9,0,0,1-.41-2.71l0-.29h0v0l0,0v-.14a14,14,0,0,0,.3-2.48v-.15l1.26-.14a9,9,0,0,0,1.87-.21l.82-.09,1.57.12.06,0a5.89,5.89,0,0,0,1,.11,4.92,4.92,0,0,0,.94.1c.16,0,.32,0,.47,0h.1l.73-.13.19-.1a5.44,5.44,0,0,0,.71-.26l.54-.14-.54.17,0,.06.05,0,.28-.09h0l.8-.2.12,0h0v0l-.07,0,.27-.07h0l.11.1-.19,0h0v0l.89.24,0,0H849v0h.1l.43,0h.1a1.75,1.75,0,0,1,.28.33l0,.17,0,.1,0,.06.07.09.11,0,0,0,0,0h.05l0,.15.07.13,0,0,0,0,0,0,.06,0h.09a.26.26,0,0,0,.11.07c.22.06.38-.2.43-.42s.11-.44.28-.52v0l0,0,.21.07h0l.26.41-.07.23v.33l.26.23h.21l.34.87.08.3A8.12,8.12,0,0,1,851.22,71.73Zm2.25-.38,0,.34h-.05v-.14C853.42,71.49,853.45,71.42,853.47,71.35Zm.24-24h0Zm.12,0-.06,0h-.06Zm0,22,0,0,0,.14A.29.29,0,0,1,853.84,69.35Zm.42-22.06-.41.06.11,0,.29,0Zm.35,0h0Zm2.67,20.95-.24-.72c.05.12.11.23.15.35Zm.19-18.06h0l0-.08h0Zm.14,20.67V71a0,0,0,0,1,0,0l0,.11a.41.41,0,0,1-.07.11l.09-.23h0l-.11.27-.08.09-.14.16h0l-.06.06,0,0-3.65.07V71.2a9.19,9.19,0,0,0,.19-1.07l.41-1.44.07-.16v.17l0,0,0,0v-.25l.14-.33h0l0,0v0l.09-.18v.29h0l-.08.29h0l.3-1h0l-.19.65,0-.31.33-.73h0V67l.11-.2v0l-.4,1.48h0l.44-1.56.32-.62v0l.23-.44,0,0h0v0a4.69,4.69,0,0,1,.93,1l0,.08,0,.08,0-.12.12.2.15.48.22.47-.3-.84a1.74,1.74,0,0,1,.11.18l.51,1.46,0,.16,0-.1v.09l0,.06,0,0v0l0,0A13.54,13.54,0,0,1,857.61,70.82Zm0-22.63.5.42.44.51.39,1.12c-.09-.18-.16-.37-.25-.55A6.69,6.69,0,0,0,857.61,48.19Zm.94,15.17-.1-.1-.06-.53Zm.77,5.69c0-.12,0-.24,0-.36h0v.37ZM1246.6,44.21l-.1.07s0-.07,0-.1h0A.53.53,0,0,0,1246.6,44.21Zm52.57-22.58,0,0a.24.24,0,0,1-.08-.06A.29.29,0,0,0,1299.17,21.63Zm0,2.36a.63.63,0,0,0-.12.11l0-.05.15-.13A.64.64,0,0,0,1299.18,24Zm151.38,11.14-.15,1.15h-8.78l-.13-1.15a3.53,3.53,0,0,1,0-.46V33.28a4.53,4.53,0,0,1,9.06,0v1.39A3.53,3.53,0,0,1,1450.56,35.13Zm1.94,22.35h-12.94V41.31h12.94Z" transform="translate(0 -1)"/><polygon points="429.75 43.09 429.76 43.09 429.76 43.09 429.79 43.13 429.78 43.13 429.78 43.13 429.75 43.09"/><polygon points="429.8 43.3 429.8 43.29 429.84 43.15 429.85 43.14 429.85 43.15 429.81 43.3 429.8 43.3"/><polygon points="430.35 44.68 430.36 44.68 430.36 44.68 430.36 44.69 430.35 44.68"/><polygon points="429.4 44.89 429.44 44.72 429.44 44.72 429.45 44.72 429.41 44.89 429.4 44.9 429.4 44.89"/><polygon points="428.78 46.79 428.77 46.8 428.79 46.77 428.78 46.79"/><polygon points="417.76 48.71 417.76 48.71 417.62 48.61 417.76 48.7 417.76 48.71"/><polygon points="416.14 47.98 416.1 47.98 416.14 47.98 416.14 47.98"/><polygon points="417.62 48.61 417.2 48.34 417.38 48.43 417.62 48.61"/><polygon points="416.97 48.22 416.89 48.19 416.95 48.21 416.97 48.22"/><polygon points="416.89 48.19 416.14 47.98 416.25 47.99 416.89 48.19"/><polygon points="417.2 48.34 416.97 48.22 417.05 48.24 417.2 48.34"/><polygon points="418.57 56.33 418.54 57.12 418.53 57.13 418.52 57.12 418.55 56.33 418.56 56.32 418.57 56.33"/><polygon points="419.11 57.37 419.1 57.37 419.09 57.37 418.99 56.79 419 56.78 419 56.79 419.11 57.37"/><polygon points="419.39 56.81 419.48 57.21 419.48 57.22 419.47 57.21 419.38 56.82 419.38 56.81 419.39 56.81"/><polygon points="418.79 57.28 418.79 57.28 418.71 56.78 418.64 56.57 418.65 56.57 418.66 56.57 418.7 56.7 418.7 56.7 418.7 56.69 418.71 56.7 418.72 56.77 418.78 56.97 418.77 56.97 418.77 56.97 418.73 56.85 418.8 57.27 418.79 57.28"/><polygon points="418.47 56.02 418.47 56.02 418.26 56.21 418.25 56.21 418.25 56.2 418.46 56.02 418.47 56.02"/><polygon points="418.02 60.49 418.02 60.49 418.02 60.49 418.02 60.49"/><polygon points="425.59 57.59 425.61 57.58 425.59 57.64 425.56 57.67 425.59 57.59"/><polygon points="428.23 54.8 428.24 54.79 428.25 54.81 428.2 54.97 428.17 55.01 428.23 54.8"/></svg>