<svg width="147" height="9" viewBox="0 0 147 9" fill="none" xmlns="http://www.w3.org/2000/svg">
<path d="M5.52617 7.00771V8.1999H0.533203V0.308496H1.94414V7.00771H5.52617Z" fill="white"/>
<path d="M15.2879 0.177246C16.4363 0.177246 17.346 0.543652 18.0168 1.27646C18.6913 2.00928 19.0285 3.00277 19.0285 4.25693C19.0285 5.5111 18.6913 6.50459 18.0168 7.2374C17.346 7.96657 16.4363 8.33115 15.2879 8.33115C14.1358 8.33115 13.2225 7.96657 12.548 7.2374C11.8772 6.50459 11.5418 5.5111 11.5418 4.25693C11.5418 3.00277 11.8772 2.00928 12.548 1.27646C13.2225 0.543652 14.1358 0.177246 15.2879 0.177246ZM16.9668 2.1624C16.5512 1.64105 15.9915 1.38037 15.2879 1.38037C14.5842 1.38037 14.0246 1.63923 13.609 2.15693C13.1934 2.67464 12.9855 3.37464 12.9855 4.25693C12.9855 5.13558 13.1934 5.83376 13.609 6.35146C14.0246 6.86917 14.5842 7.12803 15.2879 7.12803C15.9915 7.12803 16.5512 6.86917 16.9668 6.35146C17.3824 5.83376 17.5902 5.13558 17.5902 4.25693C17.5902 3.37829 17.3824 2.68011 16.9668 2.1624Z" fill="white"/>
<path d="M32.6621 4.90771C32.6621 5.97959 32.3577 6.81813 31.7488 7.42334C31.1436 8.02855 30.3014 8.33115 29.2223 8.33115C28.0702 8.33115 27.1587 7.96475 26.4879 7.23193C25.8207 6.49547 25.4871 5.49287 25.4871 4.22412C25.4871 2.9736 25.8189 1.9874 26.4824 1.26553C27.1496 0.540006 28.0538 0.177246 29.1949 0.177246C30.0918 0.177246 30.852 0.419694 31.4754 0.90459C32.0988 1.38949 32.4743 2.02751 32.602 2.81865H31.1691C31.0342 2.36657 30.7936 2.01292 30.4473 1.75771C30.1009 1.50251 29.6853 1.3749 29.2004 1.3749C28.4895 1.3749 27.9335 1.62464 27.5324 2.12412C27.1314 2.6236 26.9309 3.31813 26.9309 4.20771C26.9309 5.11553 27.1368 5.83011 27.5488 6.35146C27.9645 6.87282 28.5277 7.1335 29.2387 7.1335C29.8329 7.1335 30.3178 6.96214 30.6934 6.61943C31.0725 6.27672 31.2676 5.82829 31.2785 5.27412L31.284 5.14287H29.3809V4.06553H32.6621V4.90771Z" fill="white"/>
<path d="M42.8941 0.177246C44.0426 0.177246 44.9522 0.543652 45.623 1.27646C46.2975 2.00928 46.6348 3.00277 46.6348 4.25693C46.6348 5.5111 46.2975 6.50459 45.623 7.2374C44.9522 7.96657 44.0426 8.33115 42.8941 8.33115C41.7421 8.33115 40.8288 7.96657 40.1543 7.2374C39.4835 6.50459 39.148 5.5111 39.148 4.25693C39.148 3.00277 39.4835 2.00928 40.1543 1.27646C40.8288 0.543652 41.7421 0.177246 42.8941 0.177246ZM44.573 2.1624C44.1574 1.64105 43.5978 1.38037 42.8941 1.38037C42.1905 1.38037 41.6309 1.63923 41.2152 2.15693C40.7996 2.67464 40.5918 3.37464 40.5918 4.25693C40.5918 5.13558 40.7996 5.83376 41.2152 6.35146C41.6309 6.86917 42.1905 7.12803 42.8941 7.12803C43.5978 7.12803 44.1574 6.86917 44.573 6.35146C44.9887 5.83376 45.1965 5.13558 45.1965 4.25693C45.1965 3.37829 44.9887 2.68011 44.573 2.1624Z" fill="white"/>
<path d="M60.0168 8.1999H58.6113V4.77646H54.7723V8.1999H53.3613V0.308496H54.7723V3.58975H58.6113V0.308496H60.0168V8.1999Z" fill="white"/>
<path d="M72.1191 7.00771V8.1999H67.0113V0.308496H72.1191V1.50068H68.4223V3.6335H71.9168V4.75459H68.4223V7.00771H72.1191Z" fill="white"/>
<path d="M80.3551 1.45146V4.14756H81.9465C82.3949 4.14756 82.7431 4.02907 82.991 3.79209C83.2389 3.55511 83.3629 3.22334 83.3629 2.79678C83.3629 2.38115 83.2335 2.05303 82.9746 1.8124C82.7158 1.57178 82.3639 1.45146 81.9191 1.45146H80.3551ZM80.3551 5.23037V8.1999H78.9441V0.308496H82.0777C82.9272 0.308496 83.5944 0.529069 84.0793 0.970215C84.5642 1.40771 84.8066 2.00563 84.8066 2.76396C84.8066 3.29261 84.6754 3.75928 84.4129 4.16396C84.1504 4.56501 83.7858 4.84938 83.3191 5.01709L85.0418 8.1999H83.434L81.8809 5.23037H80.3551Z" fill="white"/>
<path d="M96.6519 7.00771V8.1999H91.5441V0.308496H96.6519V1.50068H92.9551V3.6335H96.4496V4.75459H92.9551V7.00771H96.6519Z" fill="white"/>
<path d="M104.292 8.26006C104.069 8.26006 103.882 8.18532 103.729 8.03584C103.579 7.88271 103.504 7.69495 103.504 7.47256C103.504 7.25381 103.579 7.06787 103.729 6.91475C103.882 6.76162 104.069 6.68506 104.292 6.68506C104.511 6.68506 104.695 6.76162 104.844 6.91475C104.997 7.06787 105.074 7.25381 105.074 7.47256C105.074 7.69495 104.997 7.88271 104.844 8.03584C104.695 8.18532 104.511 8.26006 104.292 8.26006Z" fill="white"/>
<path d="M114.83 8.33115C113.7 8.33115 112.805 7.96657 112.145 7.2374C111.489 6.50824 111.161 5.51292 111.161 4.25146C111.161 2.9973 111.49 2.00563 112.15 1.27646C112.814 0.543652 113.707 0.177246 114.83 0.177246C115.749 0.177246 116.524 0.439746 117.154 0.964746C117.785 1.4861 118.144 2.16969 118.232 3.01553H116.843C116.751 2.51969 116.52 2.1223 116.148 1.82334C115.78 1.52438 115.34 1.3749 114.83 1.3749C114.152 1.3749 113.611 1.63558 113.206 2.15693C112.805 2.67464 112.604 3.37282 112.604 4.25146C112.604 5.1374 112.805 5.83922 113.206 6.35693C113.607 6.87464 114.15 7.1335 114.836 7.1335C115.357 7.1335 115.794 7.00042 116.148 6.73428C116.505 6.46449 116.739 6.09261 116.848 5.61865H118.232C118.108 6.46449 117.743 7.12803 117.138 7.60928C116.533 8.09053 115.763 8.33115 114.83 8.33115Z" fill="white"/>
<path d="M128.382 0.177246C129.53 0.177246 130.44 0.543652 131.111 1.27646C131.785 2.00928 132.122 3.00277 132.122 4.25693C132.122 5.5111 131.785 6.50459 131.111 7.2374C130.44 7.96657 129.53 8.33115 128.382 8.33115C127.23 8.33115 126.316 7.96657 125.642 7.2374C124.971 6.50459 124.636 5.5111 124.636 4.25693C124.636 3.00277 124.971 2.00928 125.642 1.27646C126.316 0.543652 127.23 0.177246 128.382 0.177246ZM130.061 2.1624C129.645 1.64105 129.085 1.38037 128.382 1.38037C127.678 1.38037 127.118 1.63923 126.703 2.15693C126.287 2.67464 126.079 3.37464 126.079 4.25693C126.079 5.13558 126.287 5.83376 126.703 6.35146C127.118 6.86917 127.678 7.12803 128.382 7.12803C129.085 7.12803 129.645 6.86917 130.061 6.35146C130.476 5.83376 130.684 5.13558 130.684 4.25693C130.684 3.37829 130.476 2.68011 130.061 2.1624Z" fill="white"/>
<path d="M146.992 8.1999H145.723V2.5999H145.685L143.404 8.13428H142.442L140.161 2.5999H140.123V8.1999H138.849V0.308496H140.484L142.901 6.26396H142.945L145.362 0.308496H146.992V8.1999Z" fill="white"/>
</svg>
